<?xml version="1.0" encoding="UTF-8" standalone="no"?>
<!-- Created with Inkscape (http://www.inkscape.org/) -->

<svg
   version="1.1"
   id="svg1"
   width="120"
   height="120"
   viewBox="0 0 120 120"
   sodipodi:docname="CLGZ Ru 120x120.svg"
   inkscape:version="1.4.3 (0d15f75, 2025-12-25)"
   xmlns:inkscape="http://www.inkscape.org/namespaces/inkscape"
   xmlns:sodipodi="http://sodipodi.sourceforge.net/DTD/sodipodi-0.dtd"
   xmlns="http://www.w3.org/2000/svg"
   xmlns:svg="http://www.w3.org/2000/svg">
  <defs
     id="defs1" />
  <sodipodi:namedview
     id="namedview1"
     pagecolor="#ffffff"
     bordercolor="#000000"
     borderopacity="0.25"
     inkscape:showpageshadow="2"
     inkscape:pageopacity="0.0"
     inkscape:pagecheckerboard="true"
     inkscape:deskcolor="#d1d1d1"
     showgrid="false"
     inkscape:zoom="3.3312586"
     inkscape:cx="32.119992"
     inkscape:cy="73.545776"
     inkscape:window-width="1857"
     inkscape:window-height="1057"
     inkscape:window-x="55"
     inkscape:window-y="-8"
     inkscape:window-maximized="1"
     inkscape:current-layer="g1" />
  <g
     inkscape:groupmode="layer"
     inkscape:label="Image"
     id="g1"
     transform="matrix(0.66249662,0,0,0.66249662,30.375304,30.375304)">
    <circle
       style="fill:#ffffff;stroke:none;stroke-width:1.133;stroke-linejoin:bevel;paint-order:stroke fill markers;fill-opacity:1"
       id="path2"
       cx="60"
       cy="60"
       r="60"
       transform="matrix(1.5094417,0,0,1.5094417,-45.849749,-45.849749)" />
    <g
       id="g79"
       transform="matrix(0.93415764,0,0,0.93415764,-39.661038,-39.558281)">
      <path
         class="cls-1"
         d="m 142.74,60.73 c -0.71,-0.12 -1.84,-1.11 -3.27,-0.78 -0.26,0 -0.57,-0.56 -0.07,-0.66 1.61,-0.31 0.85,-1.53 1,-2.38 0.3,-2.08 1.82,-2.94 3.81,-2.19 0.56,0.21 0.91,0.89 1.62,0.73 0.71,-0.16 1.16,-1.19 1.87,-0.38 0.09,0.11 -0.9,1 -1.21,1.65 -0.2,0.4 0,1 -0.09,1.45 a 3.21,3.21 0 0 1 -3.66,2.56 z m 1.33,-4.48 c 0,-0.12 0,-0.28 0,-0.35 a 1.39,1.39 0 0 0 -1.67,-0.28 c -0.63,0.31 -1.28,0.77 -1.12,1.68 a 0.42,0.42 0 0 0 0.23,0.26 c 0.56,0.29 2.41,-0.66 2.56,-1.31 z m 1.64,2 c -0.31,-0.23 -0.4,-0.32 -0.5,-0.38 -0.52,-0.31 -3,0.52 -3.07,1.08 0,0.16 0.26,0.37 0.41,0.55 0.34,0.4 0.79,0.67 1.24,0.37 a 23.88,23.88 0 0 0 1.92,-1.66 z"
         id="path1"
         style="fill:#254c2e" />
      <path
         class="cls-1"
         d="m 129.94,38.31 c 1,1.71 1.05,2.43 0.05,3.33 a 2.94,2.94 0 0 1 -3.8,0 2.45,2.45 0 0 1 -0.33,-3.31 28.14,28.14 0 0 1 2.6,-2.64 2.2,2.2 0 0 1 2.1,-0.35 c 0.93,0.17 1.7,0.87 2.73,0.88 0.41,0 0.36,0.6 0.27,0.93 -0.05,0.16 -0.38,0.32 -0.59,0.33 -0.75,0 -1.23,-1 -2,-0.65 -0.77,0.35 -1.19,-1.27 -1.67,-0.1 -0.15,0.37 0.42,1 0.66,1.57 a 6.33,6.33 0 0 1 -1.08,-0.07 c -0.39,-0.09 -0.63,-0.82 -1.16,-0.26 a 7.09,7.09 0 0 0 -1.4,1.62 c -0.28,0.62 0.33,1.13 0.84,1.43 a 1.72,1.72 0 0 0 2.49,-0.62 c 0.47,-0.63 0.17,-1.4 0.29,-2.09 z"
         id="path2-2"
         style="fill:#254c2e" />
      <path
         class="cls-1"
         d="m 84.39,26.09 a 2.16,2.16 0 0 1 -1.89,2.63 5,5 0 0 0 -1.88,2.08 4.12,4.12 0 0 1 -0.33,0.62 c -0.14,-0.16 -0.41,-0.35 -0.39,-0.49 0.28,-1.63 -0.63,-3.05 -0.77,-4.6 -0.15,-1.74 0.33,-2.45 1.93,-2.89 a 2.69,2.69 0 0 1 3.33,2.65 z m -3.76,0 c 0.11,0.57 -0.3,1.46 0.76,1.7 1.06,0.24 2.2,-0.63 2.15,-1.46 0,-0.49 -1.53,-2.25 -1.83,-2.08 a 1.78,1.78 0 0 0 -1.08,1.87 z"
         id="path3-4"
         style="fill:#254c2e" />
      <path
         class="cls-1"
         d="m 150.89,69.54 c 0.35,1.28 -0.64,1.56 -1.5,2.06 a 1.9,1.9 0 0 1 -2.62,-0.35 c -0.59,-0.61 -1.27,-1.14 -1.17,-2.16 0.07,-0.69 -0.27,-0.83 -0.81,-0.41 a 0.91,0.91 0 0 1 -1.3,0 c 0.32,-0.35 0.57,-0.86 1,-1 a 9.7,9.7 0 0 1 3,-0.9 c 0.87,0 1.59,-1.36 2.27,-0.55 a 3.76,3.76 0 0 1 1.12,2.94 2.53,2.53 0 0 0 0.01,0.37 z m -2.1,-2 a 3.89,3.89 0 0 0 -2.33,1.39 c -0.13,0.72 0.88,1.5 2.07,1.52 0.71,0 1.52,0.13 1.57,-1 a 1.82,1.82 0 0 0 -1.31,-1.92 z"
         id="path4-5"
         style="fill:#254c2e" />
      <path
         class="cls-1"
         d="m 136.55,51 c -1,0 -2.83,-2.08 -2.88,-3.24 a 3.19,3.19 0 0 1 2.9,-2.69 c 1.11,0.12 3.16,2.18 3,3.06 -0.16,0.88 -2.32,2.87 -3.02,2.87 z m 0.23,-4.45 c -1,0 -1.74,0.11 -1.62,1.33 0.07,0.67 -0.22,1.53 0.87,1.65 a 1.81,1.81 0 0 0 2.13,-1.85 c 0.06,-1.06 -0.61,-1.19 -1.38,-1.16 z"
         id="path5-5"
         style="fill:#254c2e" />
      <path
         class="cls-1"
         d="m 94.82,24.11 a 1.76,1.76 0 0 1 1.41,2.5 c -0.39,1 -0.81,2.39 -2.54,2 A 1.56,1.56 0 0 0 92,29 c -0.4,0.47 0.33,1.7 -0.7,1.48 -0.55,-0.12 -0.2,-1.34 -0.23,-2.06 0,-1 0,-2 0,-3 0.06,-2.32 1.27,-2.73 3.75,-1.29 a 2.32,2.32 0 0 0 -2.75,1.64 c -0.51,1.16 0.31,1.67 1,2 a 1.38,1.38 0 0 0 1.8,-0.64 c 0.82,-1.21 -0.3,-2.05 -0.05,-3.02 z"
         id="path6-1"
         style="fill:#254c2e" />
      <path
         class="cls-1"
         d="m 107.53,30.83 c -0.77,-1.19 -0.59,3.25 -1.85,0.31 a 2,2 0 0 0 -2.85,-0.62 c -0.71,0.52 -0.58,-0.57 -0.46,-0.79 0.51,-0.92 1.54,-1.43 1.53,-2.83 0,-0.93 1.08,-1.42 2.27,-1.36 1.19,0.06 1.48,0.65 1.36,1.64 a 2.5,2.5 0 0 1 -0.39,1.36 c -0.86,1 0.31,1.54 0.37,2.31 z m -1.61,-4.41 a 3,3 0 0 0 -1.13,2.72 c 0.12,0.31 0.52,0.5 0.8,0.75 0.13,-0.15 0.35,-0.3 0.38,-0.46 0.12,-0.84 -0.16,-1.76 0.51,-2.49 0.21,-0.22 0.14,-0.42 -0.19,-0.53 a 1.16,1.16 0 0 0 -0.37,0.01 z"
         id="path7-7"
         style="fill:#254c2e" />
      <path
         class="cls-1"
         d="m 146.4,65.2 c -0.13,0.86 -0.78,0.87 -1.38,0.75 a 2.11,2.11 0 0 1 -1.48,-2.19 2.78,2.78 0 0 1 1.71,-2.48 2,2 0 0 1 2.27,0 c 1.82,1.17 1.94,3.24 0.07,4.42 -0.22,0.13 -0.8,-0.33 -1.22,-0.51 0.29,-1 -0.57,-1.55 -0.77,-2.35 -0.07,-0.3 -0.29,-0.72 -0.63,-0.16 -0.51,0.89 0.23,2.16 1.43,2.52 z m 0.54,-2.93 c -0.43,0.18 -0.47,0.55 -0.12,0.73 0.35,0.18 0,1.34 0.85,1.08 0.17,0 0.2,-0.89 0.13,-1.33 -0.07,-0.44 -0.47,-0.5 -0.86,-0.48 z"
         id="path8-1"
         style="fill:#254c2e" />
      <path
         class="cls-1"
         d="m 151.13,83.18 h -1.49 c -0.84,0 -1.12,-0.3 -0.47,-1 0.06,-0.06 -0.19,-0.35 -0.24,-0.55 -0.22,-0.9 -1.27,-1.59 -0.84,-2.61 0.3,-0.69 3.57,-1.38 4.5,-1 0.46,0.16 0.44,0.65 0.11,0.76 -1.49,0.51 -0.43,2.68 -2.13,3.11 -0.7,0.18 0,0.44 0.23,0.55 0.83,0.45 1.47,-0.81 2.31,-0.31 a 2.66,2.66 0 0 1 0.49,0.56 c 0.17,0.21 0.09,0.47 -0.24,0.49 -0.74,0.06 -1.49,0 -2.23,0 z m -0.9,-3.67 a 0.6,0.6 0 0 0 -0.78,0.44 c -0.08,0.48 0,0.93 0.7,0.87 0.39,0 0.61,-0.2 0.64,-0.62 0.03,-0.42 -0.19,-0.62 -0.56,-0.69 z"
         id="path9"
         style="fill:#254c2e" />
      <path
         class="cls-1"
         d="m 116.5,33.83 a 3.16,3.16 0 0 1 -3.4,-0.73 c -0.17,-0.25 -0.27,-0.4 -0.11,-0.61 0.84,-1 0.89,-2.51 1.93,-3.43 a 2.37,2.37 0 0 1 0.58,-0.26 c 0.07,0.22 0.27,0.54 0.18,0.65 -1.11,1.58 0.45,2.12 1.22,2.73 0.77,0.61 1,-0.25 1.15,-0.89 a 0.72,0.72 0 0 1 0.9,-0.41 c 0.51,0.14 0.28,0.46 0.11,0.77 -0.57,1.05 -1.1,2.13 -1.71,3.16 -0.12,0.2 -0.51,0.69 -0.78,0.1 a 3.23,3.23 0 0 1 -0.08,-1.09 c 0.18,-0.09 0.43,-0.14 0.52,-0.28 0.09,-0.14 -0.06,-0.39 -0.23,-0.25 -0.17,0.14 -0.19,0.35 -0.28,0.54 z m -2.19,-1.46 c 0,0.64 0.48,0.69 0.94,0.67 0.1,0 0.29,-0.41 0.26,-0.44 -0.3,-0.3 -0.64,-0.56 -1,-0.84 -0.05,0.24 -0.13,0.41 -0.2,0.61 z"
         id="path10"
         style="fill:#254c2e" />
      <path
         class="cls-1"
         d="m 34.21,66.35 c -0.2,0.13 -0.4,0.25 -0.59,0.4 a 3,3 0 0 0 -1,3.21 c 0.08,0.36 0.25,0.77 -0.09,1 -0.16,0.09 -0.64,-0.17 -0.82,-0.39 A 7,7 0 0 0 28.78,68.5 c -0.92,-0.38 -1.54,-0.8 -1.21,-1.81 a 2,2 0 0 1 2.2,-1.48 c 1.33,0.08 2.42,1.24 3.85,0.8 0.16,-0.09 0.38,0.2 0.59,0.34 z m -2.27,1.27 c 0,-0.12 0,-0.28 0,-0.36 -0.39,-0.57 -2.7,-1.09 -3.1,-0.69 -0.16,0.16 -0.41,0.49 -0.35,0.57 0.43,0.67 2.77,1.2 3.31,0.79 0.08,-0.06 0.1,-0.2 0.14,-0.31 z"
         id="path11"
         style="fill:#254c2e" />
      <path
         class="cls-1"
         d="m 37.26,54 a 4.21,4.21 0 0 1 0.74,3.11 0.73,0.73 0 0 1 -0.76,0.64 c 0,-1 0.18,-2 -0.86,-2.66 a 1.69,1.69 0 0 0 -2,0 c -0.37,0.27 -0.85,0.6 -0.75,1.18 a 1.65,1.65 0 0 0 1.45,1.43 15.08,15.08 0 0 0 2.23,0 c -0.52,0.75 -0.7,1.48 0,2.19 L 37.2,60.01 C 35.57,60 34.39,58.77 33,58.17 32.56,57.99 32.19,57.69 32.49,56.8 c 0.94,-2.75 0.82,-2.79 3.73,-2.82 h 1.11 z"
         id="path12"
         style="fill:#254c2e" />
      <path
         class="cls-1"
         d="m 132.17,42.78 c 1,0 2,0 3,0 a 2.25,2.25 0 0 1 0.65,0.27 3.38,3.38 0 0 1 -0.38,0.6 c -0.5,0.54 -1,1.08 -1.55,1.58 -0.55,0.5 -1.2,1.18 -1.34,1.09 -0.7,-0.47 -0.09,-1 0.16,-1.53 0.25,-0.53 -0.28,-0.5 -0.58,-0.52 -0.74,0 -1.48,0 -2.21,-0.05 -0.3,0 -0.77,-0.22 -0.32,-0.66 q 1.56,-1.53 3.21,-3 c 0.09,-0.08 0.43,0.11 0.66,0.17 a 2.27,2.27 0 0 1 -0.2,0.57 c -0.31,0.51 -1,0.76 -1,1.46 -0.19,0.1 -0.44,0.14 -0.53,0.29 -0.09,0.15 0.06,0.36 0.25,0.23 0.19,-0.13 0.1,-0.28 0.18,-0.5 z"
         id="path13"
         style="fill:#254c2e" />
      <path
         class="cls-1"
         d="m 102.33,26.66 c 0,2 -0.6,2.68 -2.58,2.7 -1.98,0.02 -2.7,-0.56 -2.75,-2.56 -0.05,-2 0.61,-2.69 2.58,-2.71 2.16,-0.03 2.72,0.5 2.75,2.57 z m -0.83,0.22 a 1.87,1.87 0 0 0 -1.64,-2 c -0.72,-0.1 -2,1.15 -2,2.11 a 1.6,1.6 0 0 0 1.65,1.58 1.85,1.85 0 0 0 1.99,-1.69 z"
         id="path14"
         style="fill:#254c2e" />
      <path
         class="cls-1"
         d="M 29.8,82.91 A 3.27,3.27 0 0 1 26.36,85.42 3.48,3.48 0 0 1 24,82.66 3,3 0 0 1 27,80.13 c 1.39,0.08 2.91,1.6 2.8,2.78 z m -2.92,1.67 c 0.51,-0.07 2,-1.51 2,-1.89 0,-0.38 -1.79,-1.83 -2.21,-1.69 a 1.74,1.74 0 0 0 -1.36,1.88 c 0.05,0.82 0.94,1.78 1.57,1.7 z"
         id="path15"
         style="fill:#254c2e" />
      <path
         class="cls-1"
         d="m 30.54,60.74 c 0.5,-1 0.93,-2.12 2.38,-1.08 0.28,0.2 0.85,0.18 1,0.41 0.33,0.7 1.76,0.14 1.51,1.42 -0.45,2.4 -1,2.95 -2.82,3 -1,0 -2.14,0.06 -2.52,-1 -0.3,-0.88 -1,-2.1 0.5,-2.76 0.11,0.72 -0.2,1.5 0.32,2.15 a 1.76,1.76 0 0 0 2.57,0.52 1.39,1.39 0 0 0 0.79,-1.18 c 0,-0.57 -0.44,-0.87 -0.81,-1.15 -0.92,-0.67 -1.96,-0.18 -2.92,-0.33 z"
         id="path16"
         style="fill:#254c2e" />
      <path
         class="cls-1"
         d="m 52.5,35.15 c 0,0 -0.33,-0.33 0.2,-0.53 a 1,1 0 0 1 0.7,0.09 c 1.07,0.53 1,1.92 1.92,2.6 0.23,0.17 0.66,0.46 0.33,0.82 -0.33,0.36 -0.62,0.13 -1,0 -1.88,-0.62 -2,-0.51 -1.74,1.42 a 1.49,1.49 0 0 1 -0.1,0.69 c -0.1,0.25 -0.29,0.19 -0.56,0 A 8.47,8.47 0 0 1 50,37 c -0.08,-0.15 0.06,-0.47 0.19,-0.66 0.13,-0.19 0.36,0.07 0.55,0.14 0.49,0.2 0.59,1.26 1.38,0.74 0.63,-0.4 1.15,-0.97 0.38,-2.07 z"
         id="path17"
         style="fill:#254c2e" />
      <path
         class="cls-1"
         d="m 121.47,36.7 c 0.39,-1.07 0.14,-1.53 -0.94,-1.21 -0.45,0.14 -0.85,0.47 -1.3,0.56 a 2.64,2.64 0 0 1 -1,-0.23 1.66,1.66 0 0 1 0.26,-0.57 10.2,10.2 0 0 0 1.8,-3.11 c 0.08,-0.14 0.3,-0.21 0.46,-0.31 a 1.84,1.84 0 0 1 0.26,0.64 2,2 0 0 1 -0.17,1.05 c -0.75,1.24 -0.12,1.18 0.74,0.78 0.44,-0.21 0.81,-0.57 1.33,-0.48 a 1.69,1.69 0 0 1 1,0.36 0.79,0.79 0 0 1 -0.13,1 5.18,5.18 0 0 0 -1.43,2.09 c -0.1,0.4 -0.65,0.37 -0.94,0.19 -0.62,-0.35 0.05,-0.57 0.06,-0.76 z"
         id="path18"
         style="fill:#254c2e" />
      <path
         class="cls-1"
         d="m 70.88,31 -0.16,0.28 c -0.16,0.26 -0.32,0.22 -0.5,-0.1 -0.43,-0.76 -0.87,-1.52 -1.31,-2.28 -0.43,0.72 -0.12,1.72 -0.87,2.33 -0.29,0.24 0.16,1.15 -0.7,0.85 A 1.61,1.61 0 0 1 66.59,31.29 2,2 0 0 1 66.4,30.24 C 66.47,29.4 65,28.76 66,28 c 0.27,-0.2 1,0.8 1.23,1.58 0.15,0.56 0.61,0.16 0.59,-0.12 -0.09,-1.2 0.77,-2 1.14,-3 1.54,0.62 0.91,2.44 1.86,3.41 0.18,0.18 0.06,0.7 0.06,1.13 z"
         id="path19"
         style="fill:#254c2e" />
      <path
         class="cls-1"
         d="m 73.86,26.78 c 0.09,-0.52 -0.28,-1.25 0.3,-1.68 0.91,-0.66 2.27,0.19 3.1,-0.85 a 2.18,2.18 0 0 1 0.36,0.57 5.13,5.13 0 0 0 0.34,1.4 3.11,3.11 0 0 1 0.25,2.78 c -1.06,-0.48 -1.12,-1.51 -1.34,-2.46 0,-0.12 0,-0.25 0,-0.37 -0.3,-0.81 -1,-0.62 -1.56,-0.52 a 0.68,0.68 0 0 0 -0.44,1.12 3.08,3.08 0 0 1 0.29,3.12 1.36,1.36 0 0 1 -0.28,-0.07 C 74.19,29.6 73.87,28.61 73.86,26.78 Z"
         id="path20"
         style="fill:#254c2e" />
      <path
         class="cls-1"
         d="m 57.51,32.59 c 0,-0.19 -0.06,-0.48 0.05,-0.65 0.35,-0.59 0.6,0 0.81,0.15 a 9,9 0 0 1 2,3 c 0.09,0.15 0,0.48 -0.15,0.67 -0.15,0.19 -0.41,0 -0.55,-0.1 -0.14,-0.1 -0.53,-0.51 -0.81,-0.76 a 0.87,0.87 0 0 0 -1.3,0 c -0.42,0.38 -1.09,0.72 -0.34,1.42 a 0.69,0.69 0 0 1 0,1 c -0.38,0.35 -0.64,-0.1 -0.81,-0.33 -0.34,-0.49 -0.56,-1.07 -0.9,-1.56 -0.34,-0.49 -1.46,-1.21 -1,-1.78 0.7,-0.9 1,0.47 1.55,0.69 0.55,0.22 1.06,-0.39 1.58,-0.57 0.8,-0.3 -0.03,-0.77 -0.13,-1.18 z"
         id="path21"
         style="fill:#254c2e" />
      <path
         class="cls-1"
         d="m 148.69,77.17 c -0.15,-0.06 -0.51,-0.1 -0.56,-0.24 -0.17,-0.48 0.26,-0.49 0.57,-0.56 0.86,-0.2 0.61,-0.91 0.67,-1.48 0.14,-1.33 -0.38,-1.35 -1.36,-0.77 -0.3,0.18 -0.71,-0.07 -0.8,-0.48 -0.09,-0.41 0.07,-0.82 0.44,-0.87 0.73,-0.12 1.48,0 2.22,-0.13 0.54,-0.07 1.45,-0.49 1.53,-0.36 0.61,1.06 -0.52,1 -1,1.41 -0.48,0.41 -0.18,0.85 0.11,1.28 0.5,0.72 1.26,0.66 2,0.74 0.14,0 0.26,0.28 0.39,0.43 -0.1,0.08 -0.2,0.23 -0.28,0.23 -1.38,-0.11 -2.45,1.18 -3.93,0.8 z"
         id="path22"
         style="fill:#254c2e" />
      <path
         class="cls-1"
         d="m 107.51,30.85 c 1.21,-0.68 0.66,-2.21 1.48,-3.07 a 4.12,4.12 0 0 0 0.39,-0.6 c 0.14,0.31 0.29,0.61 0.41,0.93 0.59,1.57 0.9,1.64 2.24,0.27 0.4,-0.41 0.72,-0.63 1.19,-0.31 0.47,0.32 0.27,0.63 0.11,1 q -0.39,0.83 -0.81,1.62 c -0.27,0.53 -0.57,1.05 -0.86,1.57 -0.66,-0.39 -0.24,-1.12 -0.48,-1.61 -0.41,-0.83 -1.2,-0.73 -2.17,0.37 -0.67,0.76 -1.09,0.9 -1.48,-0.16 z"
         id="path23"
         style="fill:#254c2e" />
      <path
         class="cls-1"
         d="m 64.22,31.63 c -0.06,0.84 0.21,1.71 -0.61,2.41 -1,0.86 -1.79,0.75 -2.49,-0.49 -0.48,-0.85 -1,-1.68 -1.39,-2.56 -0.13,-0.27 -0.06,-0.76 0.43,-0.7 0.72,0.09 0.84,1.74 2,0.77 0.82,-0.68 1.26,0.49 2,0.48 z m -1.35,0.74 c -0.48,0 -0.94,0.09 -0.88,0.73 a 1.78,1.78 0 0 0 0.25,0.59 c 0.33,-0.3 0.66,-0.6 1,-0.93 a 4.36,4.36 0 0 0 -0.37,-0.39 z"
         id="path24"
         style="fill:#254c2e" />
      <path
         class="cls-1"
         d="m 37.3,49.55 c 0,0.62 0,1.24 0,1.86 a 1.74,1.74 0 0 0 1.19,1.72 c 0.86,0.34 1.3,-0.46 1.74,-1 0.13,-0.18 0.09,-0.49 0.2,-0.7 a 0.69,0.69 0 0 1 1,-0.25 c 0.49,0.31 0.47,0.79 0.1,1.25 -0.88,1.11 -1.86,2 -3.44,1.64 a 4.66,4.66 0 0 0 -0.75,0 v 0 c -0.18,-0.29 -0.35,-0.6 -0.56,-0.88 -1.39,-1.83 -1.39,-1.85 0.52,-3.64 z"
         id="path25"
         style="fill:#254c2e" />
      <path
         class="cls-1"
         d="m 47.77,41.33 c 0,0.94 0,1.88 1.35,1.14 A 3.18,3.18 0 0 0 50,41.33 c 0.15,-0.24 0.07,-0.81 0.55,-0.47 0.21,0.15 0.25,0.65 0.23,1 a 1.81,1.81 0 0 1 -1.6,1.7 3.14,3.14 0 0 1 -3.35,-1.68 C 45,40.5 45.68,39.61 47,39 v 0 c 0.22,0.73 -0.62,1.8 0.69,2.18 z"
         id="path26"
         style="fill:#254c2e" />
      <path
         class="cls-1"
         d="m 138.89,54.78 c -1.83,-1.81 -1.9,-2.16 -0.69,-3.48 1.21,-1.32 2.62,-1.5 3.89,-0.47 a 7.48,7.48 0 0 1 1.24,1.39 c 0.1,0.14 0,0.47 -0.08,0.69 -0.08,0.22 -0.32,0.27 -0.56,0 a 2.16,2.16 0 0 0 -0.27,-0.25 c -0.76,-0.55 -1.16,-1.93 -2.33,-1.51 -1.49,0.52 -1.22,2 -1.15,3.19 0,0.13 0,0.25 0,0.38 z"
         id="path27"
         style="fill:#254c2e" />
      <path
         class="cls-1"
         d="m 25.28,76.45 c 0,-0.66 -0.13,-1.17 0.48,-1.38 0.1,0.33 0.24,0.66 0.31,1 0.12,0.66 -0.32,1.59 0.73,1.8 1.05,0.21 2,0.26 2.64,-0.74 a 8,8 0 0 0 0.38,-1 c 0.15,-0.3 0.37,-0.38 0.49,-0.19 a 1.51,1.51 0 0 1 0.24,0.64 c 0.1,1.5 -1,2.21 -2.06,2.79 -1.06,0.58 -1.85,-0.4 -2.68,-0.79 -1,-0.47 -0.26,-1.58 -0.53,-2.13 z"
         id="path28"
         style="fill:#254c2e" />
      <path
         class="cls-1"
         d="m 26.8,89.12 c -2.41,0 -3,-0.47 -3,-2.18 0,-0.67 0.86,-0.91 0.93,-0.7 0.63,1.67 2,1.37 3.29,1.41 0.51,0 1,0.11 0.92,0.8 -0.08,0.69 -0.59,0.65 -1.07,0.67 z"
         id="path29"
         style="fill:#254c2e" />
      <path
         class="cls-1"
         d="m 38,48.77 c -0.14,-1.82 1.46,-2.46 2.46,-3.46 0.41,-0.4 0.61,0.29 0.47,0.53 -0.53,0.88 -0.41,1.37 0.61,1.73 0.43,0.14 0.73,0.66 1.1,1 0.37,0.34 0.79,0.81 0.5,1.25 -0.5,0.74 -0.77,-0.13 -1.07,-0.33 -0.51,-0.34 -0.89,-0.88 -1.39,-1.24 -1.05,-0.75 -1.79,0.32 -2.68,0.53 z"
         id="path30"
         style="fill:#254c2e" />
      <path
         class="cls-1"
         d="m 29.09,71.15 c 1.18,-0.17 1.77,0.73 2.46,1.41 0.42,0.41 1.14,1.21 1.06,1.31 -0.53,0.68 -1,0 -1.55,-0.2 a 5.12,5.12 0 0 0 -4.21,0.45 c -0.36,0.2 -0.66,-0.14 -0.73,-0.56 a 0.63,0.63 0 0 1 0.52,-0.81 c 0.73,-0.1 1.49,0 2.22,-0.11 1.72,-0.26 -0.22,-1 0.15,-1.4 z"
         id="path31"
         style="fill:#254c2e" />
      <path
         class="cls-1"
         d="m 42.46,43.51 c 1.22,-1.33 1.17,-1.27 2.6,-0.23 0.56,0.41 1.34,0.54 1.73,1.2 0.39,0.66 0.27,1.13 -0.52,1.33 L 46.21,45.76 C 45.82,44.49 45.12,44.19 44.05,45.08 L 44,45 c 0.19,-1.12 -0.29,-1.59 -1.4,-1.41 z"
         id="path32"
         style="fill:#254c2e" />
      <path
         class="cls-1"
         d="m 151.65,86.85 a 1.81,1.81 0 0 1 1.65,0.61 l 0.44,0.58 c -0.19,0.12 -0.39,0.36 -0.57,0.35 A 7.39,7.39 0 0 0 150,89 c -0.23,0.09 -0.93,-0.43 -1.07,-0.81 -0.34,-0.86 0.51,-0.48 0.83,-0.58 0.62,-0.19 1.53,0.38 1.79,-0.71 z"
         id="path33"
         style="fill:#254c2e" />
      <path
         class="cls-1"
         d="m 87.3,26.3 a 1.83,1.83 0 0 1 0.63,-1.64 c 0.46,-0.39 1.1,-1.21 1.32,-1.11 0.59,0.27 0.35,1.07 0.37,1.66 0.02,0.59 0,1.24 0,1.85 0,0.61 0,1.34 -0.34,1.28 -0.73,-0.09 -0.48,-0.94 -0.45,-1.47 0.12,-2.08 -1,-0.37 -1.45,-0.48 z"
         id="path34"
         style="fill:#254c2e" />
      <path
         class="cls-1"
         d="m 45.54,46.57 c 0,0.39 -0.33,0.81 -0.64,0.69 a 5.11,5.11 0 0 1 -3.12,-3.12 c -0.12,-0.31 0.29,-0.59 0.68,-0.63 l 0.09,0.07 A 1.91,1.91 0 0 0 44,45 l 0.1,0.09 a 1.85,1.85 0 0 0 1.41,1.41 z"
         id="path35"
         style="fill:#254c2e" />
      <path
         class="cls-1"
         d="m 150.83,86.18 c -0.47,0 -1,0.06 -1.36,-0.35 -0.36,-0.41 -0.47,-0.55 -0.71,-0.82 a 4.7,4.7 0 0 1 0.91,-0.37 2.86,2.86 0 0 1 1.09,0 c 1,0.2 2.09,-0.51 2.92,0.49 -0.76,0.78 -1.93,-0.15 -2.68,0.64 -0.08,0.08 -0.06,0.24 -0.09,0.35 z"
         id="path36"
         style="fill:#254c2e" />
      <path
         class="cls-1"
         d="m 64.14,31.54 c 0.45,-1 -1.18,-1.66 -0.54,-2.67 0.31,-0.47 1.48,0.88 2,2.52 a 3.48,3.48 0 0 1 0.06,0.73 0.75,0.75 0 0 1 -0.46,0.82 5.92,5.92 0 0 0 -0.45,-0.95 c -0.12,-0.17 -0.38,-0.24 -0.57,-0.36 z"
         id="path37"
         style="fill:#254c2e" />
      <path
         class="cls-1"
         d="m 87.38,26.39 c -0.26,0.54 -0.51,1.09 -0.8,1.62 a 1.19,1.19 0 0 1 -0.46,0.36 c 0,0 -0.22,-0.17 -0.22,-0.26 0,-1.37 -0.06,-2.73 -0.05,-4.09 0,-0.18 0.26,-0.36 0.4,-0.54 0.11,0.21 0.26,0.4 0.35,0.62 0.27,0.72 -0.58,1.8 0.7,2.2 z"
         id="path38"
         style="fill:#254c2e" />
      <path
         class="cls-1"
         d="m 155.59,88.17 c -0.47,-0.4 -1,-0.71 -1,-1.42 a 1.93,1.93 0 0 1 0.91,-1.81 c 0.28,-0.2 0.55,-0.2 0.51,0.12 -0.14,1 -0.53,1.91 0.09,2.84 z"
         id="path39"
         style="fill:#254c2e" />
      <path
         class="cls-1"
         d="m 47,39 c 1.35,-0.84 2.43,-0.82 2.77,0.21 0.26,0.8 -0.57,1.1 -1.21,1.35 l -0.07,-0.07 c 0.19,-1.15 -0.34,-1.57 -1.44,-1.44 z"
         id="path40"
         style="fill:#254c2e" />
      <path
         class="cls-1"
         d="m 68.5,25.12 a 5.12,5.12 0 0 1 -0.3,0.57 1.83,1.83 0 0 1 -1.9,0.67 c -0.1,0 -0.19,-0.11 -0.3,-0.15 -0.35,-0.16 -0.35,-0.33 0,-0.48 0.62,-0.29 1.24,-0.59 1.88,-0.82 0.12,-0.06 0.41,0.09 0.62,0.21 z"
         id="path41"
         style="fill:#254c2e" />
      <path
         class="cls-1"
         d="m 123,30.31 a 8.47,8.47 0 0 1 0.44,1 c 0.15,0.51 1.37,-0.09 0.94,0.9 -0.08,0.17 -0.67,0.16 -1,0.14 -0.86,0 -0.87,-0.67 -0.87,-1.31 -0.06,-0.38 0,-0.68 0.49,-0.73 z"
         id="path42"
         style="fill:#254c2e" />
      <path
         class="cls-1"
         d="m 29,71.24 a 1.76,1.76 0 0 1 -1.6,-0.56 c -0.19,-0.23 -0.6,-0.43 -0.35,-0.79 a 0.65,0.65 0 0 1 0.94,0 c 0.45,0.35 1,0.63 1.09,1.3 z"
         id="path43"
         style="fill:#254c2e" />
      <path
         class="cls-1"
         d="M 37.33,59.92 A 3.94,3.94 0 0 1 38,60 c 0.2,0.06 0.56,0.23 0.55,0.3 a 0.57,0.57 0 0 1 -0.72,0.43 0.71,0.71 0 0 1 -0.63,-0.68 z"
         id="path44"
         style="fill:#254c2e" />
      <path
         class="cls-1"
         d="m 138.94,54.73 c 0.19,0.1 0.46,0.15 0.56,0.31 a 0.21,0.21 0 0 1 -0.29,0.29 c -0.16,-0.09 -0.22,-0.36 -0.32,-0.55 z"
         id="path45"
         style="fill:#254c2e" />
      <path
         class="cls-1"
         d="m 46.27,45.81 a 0.72,0.72 0 0 1 -0.73,0.76 l -0.08,-0.08 a 0.7,0.7 0 0 1 0.75,-0.73 z"
         id="path46"
         style="fill:#254c2e" />
      <path
         class="cls-1"
         d="m 37.24,49.49 a 0.69,0.69 0 0 1 0.78,-0.72 v 0 a 0.68,0.68 0 0 1 -0.72,0.78 z"
         id="path47"
         style="fill:#254c2e" />
      <path
         class="cls-1"
         d="m 48.52,40.59 a 0.73,0.73 0 0 1 -0.75,0.74 L 47.7,41.26 a 0.71,0.71 0 0 1 0.75,-0.74 z"
         id="path48"
         style="fill:#254c2e" />
      <path
         class="cls-1"
         d="m 151.58,86.93 a 0.72,0.72 0 0 1 -0.75,-0.75 l 0.08,-0.08 a 0.72,0.72 0 0 1 0.74,0.75 z"
         id="path49"
         style="fill:#254c2e" />
      <path
         class="cls-1"
         d="m 1.84,107.42 -1.31,-6 9.84,-2.42 c 1.35,-3.56 4.81,-2.4 7.67,-3.68 l 1.23,5 -2.73,1.28 2.56,11.86 -15,3.54 -1.42,-6.09 10.32,-2.63 -0.62,-3.1 z"
         id="path50"
         style="fill:#254c2e" />
      <path
         class="cls-1"
         d="m 165.51,107.68 -5.08,-4.29 1.3,-5.88 15,3.4 c -0.41,2 -0.78,3.75 -1.2,5.77 l -6.9,-1.3 5.84,5.47 -1.22,5.52 -15,-3.46 1.24,-5.63 5.56,0.89 z"
         id="path51"
         style="fill:#254c2e" />
      <path
         class="cls-1"
         d="M 43.44,12 56.11,5.61 c 2.32,4.61 4.55,9 7,13.81 l -5.6,2.88 -4.79,-9.3 -2.06,0.53 c 0.72,1.58 1.3,2.91 1.93,4.23 2.22,4.62 1.5,6.63 -3.22,8.84 -0.45,0.2 -0.93,0.33 -1.64,0.57 L 45.79,23.91 47.85,21.4 C 46.47,18.42 45.05,15.41 43.44,12 Z"
         id="path52"
         style="fill:#254c2e" />
      <path
         class="cls-1"
         d="M 87.69,15.16 H 81.92 V 0 H 88 v 5.13 h 3.4 l 0.08,-4.92 h 5.72 v 14.92 h -6.12 v -5.08 h -3.26 z"
         id="path53"
         style="fill:#254c2e" />
      <path
         class="cls-1"
         d="m 173.31,62.05 -4.62,1.6 0.5,2.6 4.91,-1.16 c 0.58,1.93 1.12,3.75 1.76,5.89 l -14.65,4.36 C 160.59,73.41 160,71.6 159.35,69.59 l 4.88,-2 -0.36,-2.38 -5.42,1 c -0.58,-1.89 -1.12,-3.64 -1.77,-5.77 l 14.81,-4.42 z"
         id="path54"
         style="fill:#254c2e" />
      <path
         class="cls-1"
         d="m 12.13,71 a 8.54,8.54 0 0 0 -0.61,1.31 4.7,4.7 0 0 0 0,1.21 l 5,1.34 -1,5.77 c -5.17,-0.46 -10,-1.79 -15.14,-3 l 1.12,-5.88 4.76,0.58 1.1,-2.19 -5.13,-1.71 1.22,-5.88 15.12,3.17 -1.29,6 z"
         id="path55"
         style="fill:#254c2e" />
      <path
         class="cls-1"
         d="m 101.11,10.47 a 7.82,7.82 0 0 1 8.18,-8.27 c 5.47,0 9.66,3.59 9.71,8.31 a 8.3,8.3 0 0 1 -8.27,8.39 c -5.4,-0.03 -9.58,-3.69 -9.62,-8.43 z m 11.85,0 a 2.89,2.89 0 1 0 -5.78,0 2.88,2.88 0 0 0 2.64,3.05 3.24,3.24 0 0 0 3.18,-3.04 z"
         id="path56"
         style="fill:#254c2e" />
      <path
         class="cls-1"
         d="m 148.7,22.8 -9.4,12.36 -4.94,-3.78 6.15,-8.38 -1,-1.37 c -0.38,0.11 -0.68,0.11 -0.8,0.25 -1,1.25 -2,2.54 -3,3.79 -2.46,3 -4.57,3.26 -7.76,1.07 a 26.82,26.82 0 0 1 -2.3,-2 l 2.07,-3.06 3.29,0.54 6.39,-8 z"
         id="path57"
         style="fill:#254c2e" />
      <path
         class="cls-1"
         d="m 177.8,86.12 c 0.07,5.2 -3.15,8.85 -8,9 -4.85,0.15 -8.46,-3.53 -8.55,-8.86 -0.09,-5.15 3.2,-8.84 8,-9 5.02,-0.09 8.46,3.48 8.55,8.86 z m -5.8,2.06 c 0.81,-1.89 1,-3.51 -0.84,-4.43 -1.39,-0.7 -3.15,-0.74 -4,0.77 a 3.78,3.78 0 0 0 0,3.36 c 1.22,1.66 3.02,1.31 4.84,0.3 z"
         id="path58"
         style="fill:#254c2e" />
      <path
         class="cls-1"
         d="m 33.34,41 -6.68,-14.92 5,-4.95 14.48,7.29 L 42,32.58 39.42,32 l -2.2,2 0.28,2.09 z m 1.47,-10.31 1,-1.2 -1.64,-1.11 -0.37,0.31 z"
         id="path59"
         style="fill:#254c2e" />
      <path
         class="cls-1"
         d="m 25.54,43.1 3.45,3 -3.58,4.94 -12.58,-9.17 c 2.15,-2.78 4,-5.53 6.2,-7.94 1.84,-2 4.3,-2 6.43,-0.5 A 5.09,5.09 0 0 1 27.27,40 c -0.44,1 -1.07,1.93 -1.73,3.1 z M 22,40.47 c 0.21,-2.24 0.21,-2.24 -1.88,-1.3 z"
         id="path60"
         style="fill:#254c2e" />
      <path
         class="cls-1"
         d="M 0,94.15 V 83.77 h 4.22 l 0.45,4 0.54,0.07 0.79,-3.58 3,-0.18 0.93,3.58 h 0.39 l 0.67,-4 h 4.27 v 10.5 z"
         id="path61"
         style="fill:#254c2e" />
      <path
         class="cls-1"
         d="m 63.16,3.2 6.07,-0.94 1.32,5.19 c 1.18,-0.12 2.26,-0.31 3.33,-0.31 2.86,0 4.64,1.45 5.05,4 a 4.41,4.41 0 0 1 -3.41,5.43 c -3,0.83 -6,1.26 -9.48,1.95 C 65.07,13.35 64.16,8.51 63.16,3.2 Z m 8.07,8.23 0.4,2 2.08,-0.8 -0.6,-0.84 z"
         id="path62"
         style="fill:#254c2e" />
      <path
         class="cls-1"
         d="m 152.66,41.38 -3,-2.65 -0.5,0.39 2.35,3.76 -3.31,2.78 -7,-8.24 11.8,-10.07 7,8.24 -3.24,2.93 -3.21,-2.9 -0.43,0.37 2,3.08 z"
         id="path63"
         style="fill:#254c2e" />
      <path
         class="cls-1"
         d="m 168.64,51 -4.06,2.4 c -1,-1.84 -0.77,-4.63 -3.33,-5 -1.14,-0.15 -2.41,0.68 -3.28,1 -1.06,3.15 0.53,4.57 2.58,6.16 L 156.4,58 c -3.85,-2.58 -5.38,-6.63 -4,-10.37 a 9,9 0 0 1 8.28,-5.37 c 3.92,0.31 6.76,3.27 7.96,8.74 z"
         id="path64"
         style="fill:#254c2e" />
      <path
         class="cls-1"
         d="M 20.67,61.18 11,56.9 l -1.87,2.63 -3.9,-1.88 5.16,-11.38 3.89,1.56 -0.62,3.17 9.51,4.48 z"
         id="path65"
         style="fill:#254c2e" />
      <path
         class="cls-1"
         d="m 128.46,16.43 -1.63,3 -6.28,-3 1.37,-3.14 z"
         id="path66"
         style="fill:#254c2e" />
      <path
         class="cls-1"
         d="m 180.65,105.34 c -1.19,1.84 -2,3 -2.83,4.4 0.19,1.2 1.69,2.71 -0.29,4.22 -2.17,-1.07 -2.36,-3 -1.87,-5 0.49,-2 1.5,-3.61 4.99,-3.62 z"
         id="path67"
         style="fill:#254c2e" />
      <path
         class="cls-2"
         d="m 105.69,175.19 c 1.94,-2.08 1.75,-4.55 1.07,-7.22 -0.61,-2.37 -1.75,-4.65 -1.75,-7.09 0.34,-0.26 0.51,-0.48 0.73,-0.54 2.75,-0.8 5.51,-1.57 8.47,-2.41 1.91,4 2.41,8.37 4,12.37 2.51,1.28 2.55,1.37 3.06,6 a 1.56,1.56 0 0 1 -1.4,0.48 c -1.19,-0.46 -0.87,-1.94 -1.86,-2.85 a 74.34,74.34 0 0 0 -8.93,2.5 c -0.66,1.18 0.38,2.06 0.19,2.95 -0.19,0.89 -0.89,0.93 -1.47,1.05 -0.89,-0.43 -0.89,-0.43 -2.11,-5.24 z M 108,162.34 c 0.86,3.91 2.44,7.3 1.79,11.18 2,-0.79 3.92,-0.77 5.7,-2 A 62,62 0 0 0 112.37,161 Z"
         id="path68"
         style="fill:#2a6439" />
      <path
         class="cls-2"
         d="m 65.42,175.42 a 8.36,8.36 0 0 1 -8.48,-8.22 8.53,8.53 0 0 1 8.57,-8.58 c 4.6,0.06 8.64,3.86 8.45,8.29 -0.23,5.36 -3.91,8.74 -8.54,8.51 z m 0.23,-2.46 c 3.19,-0.07 5.54,-2.75 5.5,-6.25 A 5.64,5.64 0 0 0 65.48,161 c -3.28,0 -5.74,2.86 -5.64,6.55 0.09,3.37 2.38,5.45 5.81,5.45 z"
         id="path69"
         style="fill:#2a6439" />
      <path
         class="cls-2"
         d="m 151.69,152 a 2.32,2.32 0 0 1 -1.37,1.87 c -2.77,-1.69 -4.16,-5 -6.89,-7.1 -0.8,4.92 -0.75,9.65 -1.06,15 l -10.54,-12.25 a 2.24,2.24 0 0 1 1.3,-2 c 2.72,1.84 4.26,5 7,7.34 0.33,-5.07 0.64,-9.78 1,-15.14 z"
         id="path70"
         style="fill:#2a6439" />
      <path
         class="cls-2"
         d="m 77.31,177.67 c 0.83,-5.31 0.27,-10.45 1.54,-15.65 2.48,-0.5 4.91,-0.26 6.71,1.75 1.52,1.68 1.17,3.69 0.08,5.59 -0.1,0.87 0.73,1.2 1.12,1.79 a 4.7,4.7 0 0 1 -3.46,7 15.58,15.58 0 0 1 -5.99,-0.48 z m 3.12,-2.13 c 4,0.23 4.47,-0.25 3.7,-3.56 a 4,4 0 0 0 -3.56,-0.59 9.66,9.66 0 0 0 -0.14,4.15 z m 0.84,-6.68 c 1.68,0 2.75,-0.63 2.61,-2.4 -0.14,-1.77 -1.19,-1.91 -2.68,-1.69 a 6.3,6.3 0 0 0 0.07,4.09 z"
         id="path71"
         style="fill:#2a6439" />
      <path
         class="cls-2"
         d="m 49.59,169.2 a 2.17,2.17 0 0 1 -2.31,-1.15 c 2.11,-3.77 4.24,-7.55 6.43,-11.44 a 32.15,32.15 0 0 0 -5.43,-3.35 c -2.75,3.59 -4.38,7.8 -6.83,11.24 -1.15,0.37 -1.57,-0.35 -2.42,-0.85 2.63,-4.62 5.21,-9.12 7.89,-13.82 a 75.06,75.06 0 0 1 10.36,5.95 z"
         id="path72"
         style="fill:#2a6439" />
      <path
         class="cls-2"
         d="m 118.18,156.9 a 3.65,3.65 0 0 1 2,-1.22 c 1.37,1.3 1.79,3.25 3.16,4.83 a 32.74,32.74 0 0 0 5.44,-2.83 c -0.29,-2.06 -1.83,-3.39 -2.32,-5.18 0.16,-0.91 1,-1 1.82,-1.56 2.92,4.47 5.06,9.2 7.48,13.56 -0.24,1.14 -0.95,1.35 -1.82,1.6 -1.75,-1.57 -2.06,-4.17 -3.84,-6 a 34.05,34.05 0 0 0 -5.46,2.69 c 0.49,2.38 2.25,4.16 2.85,6.31 -0.25,1 -1,1.17 -1.88,1.38 -2.78,-4.34 -4.98,-9.06 -7.43,-13.58 z"
         id="path73"
         style="fill:#2a6439" />
      <path
         class="cls-2"
         d="m 144.08,137.35 c 0.44,-0.68 0.72,-1.26 1.59,-1.36 1.57,0.12 2.29,2.11 4.08,2.26 0.53,-1.78 0,-3.46 -0.35,-5.15 -0.35,-1.69 -0.42,-3.25 1.78,-4.46 l 1.45,9.22 c 3.57,0.93 7.17,-0.88 10.8,0.14 -0.48,1.72 -1.43,2.63 -3.21,2.6 -2.25,0 -4.49,0 -7.11,0 1.13,2.42 3.68,2.87 4.79,4.74 a 1.93,1.93 0 0 1 -1.24,1.64 c -0.66,0.09 -9.66,-6.76 -12.58,-9.63 z"
         id="path74"
         style="fill:#2a6439" />
      <path
         class="cls-2"
         d="m 40.37,143.23 -5.44,16.93 a 2,2 0 0 1 -2.1,-1.39 l 0.89,-3.54 c -1.12,-2 -3.28,-2.95 -4.58,-4.5 -2.05,0.14 -3.79,2.56 -5.58,0.07 1.84,-1.75 9.71,-5.33 16.81,-7.57 z m -8.65,6.05 a 6,6 0 0 0 3,2.67 9.21,9.21 0 0 0 1.3,-4.56 z"
         id="path75"
         style="fill:#2a6439" />
      <path
         class="cls-2"
         d="m 26.54,137.47 c 2.9,-2.07 2.49,-3.44 -1.7,-5.6 a 5.82,5.82 0 0 1 0,-1 c 0,-0.22 0.27,-0.4 0.41,-0.6 3.31,0.23 5.53,2.13 5.88,5 0.27,2.26 -1.08,3.64 -4.71,4.82 -1.7,4.53 -4.12,6 -7.3,4.6 -3.74,-1.71 -5,-5.57 -2.91,-9.25 l 1.49,0.68 c 0.17,2.56 -0.49,5.68 3.19,6.53 3,-1.58 3,-2 0.87,-6.23 a 6.92,6.92 0 0 1 0.74,-0.79 2.53,2.53 0 0 1 0.75,-0.25 l 2.63,1.93 a 3.47,3.47 0 0 0 0.66,0.16 z"
         id="path76"
         style="fill:#2a6439" />
      <path
         class="cls-2"
         d="M 92.9,178.53 C 92,173 91.73,168 91.34,162.77 a 25.41,25.41 0 0 1 8.27,-1.12 1.6,1.6 0 0 1 0.55,2.09 l -5.26,1 c -0.94,1.1 -0.36,2.16 -0.32,3.35 2,0.45 3.81,-0.84 5.44,-0.16 0.6,0.5 0.52,1 0.52,1.64 -1.55,1.39 -3.74,0.76 -5.73,1.44 -0.38,1.53 0.54,2.91 0.32,4.37 2,1 3.8,-0.45 5.83,0.14 0.5,0.18 0.5,0.85 0.65,1.63 -2.54,1.68 -5.48,0.71 -8.71,1.38 z"
         id="path77"
         style="fill:#2a6439" />
      <path
         class="cls-2"
         d="M 95.84,95.55 A 88.84,88.84 0 0 0 85,97.91 a 3.18,3.18 0 0 0 -2.49,3.44 c 1.43,2.13 3.91,2.82 6.17,3.67 6.26,2.37 12.58,4.59 18.9,6.79 a 13.17,13.17 0 0 1 4.64,2.91 c -0.46,2 -2.06,2.16 -3.42,2.62 -4.27,1.46 -8.76,1.75 -13.18,2.11 -9.63,0.8 -19.28,1.49 -28.81,3.16 -4.36,0.76 -8.89,1.56 -11.83,5.52 -1,3.09 0.21,5.67 2.05,8 a 57.39,57.39 0 0 0 17.42,14 c -19.31,-2.1 -42,-22.3 -46.78,-42.08 2.18,-1 4.72,-1.24 6.65,-2.85 a 15.74,15.74 0 0 0 4.26,-5.66 c -1.65,-1.86 -4.41,0 -6,-2.22 3.68,-1.51 6.2,-4.11 6.74,-7.78 -0.18,-1.59 -1.64,-1 -2,-2.13 3.35,-2.81 3.66,-6.92 4.12,-11 1.45,3.89 1.51,8.17 4.88,10.89 -0.26,0.82 -0.81,0.73 -1.27,0.85 a 9.76,9.76 0 0 0 -1,0.33 c 0.11,6.2 6.14,11 11.4,8.49 -1.09,-2.29 -4.61,-2.15 -5.13,-5.2 2.21,-1.52 5.17,-1.37 7.38,-3 2.21,-1.63 4.56,-2.91 4.95,-6.1 -2.5,-0.85 -5.15,-0.8 -6.79,-3 6.62,-3.58 8.81,-6.15 8.84,-10.35 -0.64,-0.92 -1.82,-1.17 -2.92,-2.06 4.3,-2.53 5.08,-6.79 5.84,-11.55 3,10.76 2.38,8.32 5.08,11.2 -0.33,1.4 -2,1.23 -2.69,2.25 1.15,7.07 5.39,10.35 12.29,9.27 -1.43,-2.09 -4.71,-2.72 -4.46,-6 4.2,-0.78 8.16,-2 9.43,-6.75 -1.62,-1.65 -4.33,-1.09 -5.57,-3.52 2.92,-1.77 6.36,-3.05 7,-6.94 -0.9,-1.35 -2.94,-0.88 -3.6,-2.43 4.1,-3.77 4.1,-3.77 6.49,-14.84 1.23,5.73 0.87,11.41 6.13,14.26 -0.71,2 -2.87,0.84 -3.62,2.65 0.36,3.93 3.29,5.72 7,6.59 -0.65,2.94 -3.62,2.33 -5,4.17 0.25,6.2 5.68,6.7 10,8.36 0,2.3 -1.34,3.61 -2.85,4.7 -1.51,1.09 -3.38,1.51 -4.72,2.81 3.11,5.23 10.19,4.67 14.93,-1.13 a 12.07,12.07 0 0 0 0.12,-1.36 11.45,11.45 0 0 0 -0.12,-1.28 c -0.55,-1.2 -2.08,-0.64 -2.55,-2.11 5.26,-2.86 3.9,-8.43 5.08,-13.11 a 13.4,13.4 0 0 1 0.74,2.07 18.29,18.29 0 0 1 0.13,2.23 c 0.32,4.13 1,5.67 4,8.91 0,1.52 -2,0.69 -2.3,1.91 1.56,4.76 1.57,4.78 7.8,8.08 -1.86,3 -1.86,3 -8.07,5 a 9.24,9.24 0 0 0 13.45,6.33 c -1.27,-1.32 -3.73,-0.74 -4.56,-3.32 3.38,-2.12 6.82,-4.6 7.12,-9.44 -0.78,-1 -2.41,-0.88 -3.57,-2.14 5.73,-1.62 5.19,-6.61 6.22,-10.54 1.17,4 0.86,8.93 6.05,11 -0.68,1.63 -2.3,1.48 -3.53,2.31 -0.45,5.45 4,6.69 7.56,8.64 -0.13,3.26 -3.32,3.45 -5.15,5.32 1.11,4.31 5.1,6 8.2,8.84 -0.23,2.78 -1.56,5.35 -2.81,7.83 a 66.59,66.59 0 0 1 -34.36,32.07 13.22,13.22 0 0 1 -8.36,0.49 154.42,154.42 0 0 1 -28.82,-9.8 73.75,73.75 0 0 1 -8.36,-4.85 5.24,5.24 0 0 1 -2.33,-3.67 c 0.51,-1.55 1.86,-1.91 3.18,-2.24 5.68,-1.41 11.49,-1.78 17.29,-2.34 10.33,-1 20.82,-1 30.84,-4.28 a 9.07,9.07 0 0 0 5.28,-3.78 5.32,5.32 0 0 0 -0.31,-3.62 31.25,31.25 0 0 0 -7.75,-3.81 c -6.38,-2 -12.8,-3.92 -19.17,-6 -2.09,-0.67 -4.27,-1.39 -5.49,-3.67 1.89,-2.62 7.45,-3.93 7.45,-3.93 l 2.43,-0.86 z"
         id="path78"
         style="fill:#2a6439" />
      <path
         class="cls-3"
         d="m 74.44,150.12 c 15.52,2.56 29.44,0.82 38.49,-2.46 0,0 -5.39,1.14 -8.36,0.49 a 154.42,154.42 0 0 1 -28.82,-9.8 73.75,73.75 0 0 1 -8.36,-4.85 5.24,5.24 0 0 1 -2.33,-3.67 c 0.51,-1.55 1.86,-1.91 3.18,-2.24 5.68,-1.41 11.49,-1.78 17.29,-2.34 10.33,-1 20.82,-1 30.84,-4.28 a 9.07,9.07 0 0 0 5.28,-3.78 5.32,5.32 0 0 0 -0.31,-3.62 31.25,31.25 0 0 0 -7.75,-3.81 c -6.38,-2 -12.8,-3.92 -19.17,-6 -2.09,-0.67 -4.27,-1.39 -5.49,-3.67 1.89,-2.62 7.45,-3.93 7.45,-3.93 l 2.43,-0.86 -3,0.21 a 88.84,88.84 0 0 0 -10.81,2.4 3.18,3.18 0 0 0 -2.49,3.44 c 1.43,2.13 3.91,2.82 6.17,3.67 6.26,2.37 12.58,4.59 18.9,6.79 a 13.17,13.17 0 0 1 4.64,2.91 c -0.46,2 -2.06,2.16 -3.42,2.62 -4.27,1.46 -8.76,1.75 -13.18,2.11 -9.63,0.8 -19.28,1.49 -28.81,3.16 -4.36,0.76 -8.89,1.56 -11.83,5.52 -1,3.09 0.21,5.67 2.05,8 a 57.39,57.39 0 0 0 17.42,14"
         id="path79"
         style="fill:#32b0e5" />
    </g>
  </g>
</svg>
