<?xml version="1.0" encoding="UTF-8" standalone="no"?>
<svg
   width="120"
   height="120"
   viewBox="0 0 120 120"
   fill="none"
   version="1.1"
   id="svg57"
   sodipodi:docname="HSE En 120x120.svg"
   inkscape:export-filename="hse-eng.png"
   inkscape:export-xdpi="53.667934"
   inkscape:export-ydpi="53.667934"
   inkscape:version="1.4.3 (0d15f75, 2025-12-25)"
   xmlns:inkscape="http://www.inkscape.org/namespaces/inkscape"
   xmlns:sodipodi="http://sodipodi.sourceforge.net/DTD/sodipodi-0.dtd"
   xmlns="http://www.w3.org/2000/svg"
   xmlns:svg="http://www.w3.org/2000/svg">
  <sodipodi:namedview
     id="namedview59"
     pagecolor="#ffffff"
     bordercolor="#000000"
     borderopacity="0.25"
     inkscape:showpageshadow="2"
     inkscape:pageopacity="0.0"
     inkscape:pagecheckerboard="true"
     inkscape:deskcolor="#d1d1d1"
     showgrid="false"
     inkscape:zoom="5.266587"
     inkscape:cx="46.804505"
     inkscape:cy="66.836454"
     inkscape:window-width="1857"
     inkscape:window-height="1057"
     inkscape:window-x="55"
     inkscape:window-y="-8"
     inkscape:window-maximized="1"
     inkscape:current-layer="svg57" />
  <g
     clip-path="url(#clip0_1154_279)"
     id="g50"
     transform="matrix(0.7452636,0,0,0.7452636,0.00255013,0)">
    <path
       d="M 80.5126,0 C 64.5907,0 49.0263,4.72139 35.7878,13.5671 22.5492,22.4129 12.231,34.9856 6.13793,49.6955 0.0448787,64.4055 -1.54932,80.5918 1.55688,96.2078 4.66309,111.824 12.3302,126.168 23.5887,137.426 c 11.2585,11.259 25.6026,18.926 41.2186,22.032 15.616,3.106 31.8023,1.512 46.5127,-4.581 14.709,-6.093 27.282,-16.411 36.128,-29.65 8.846,-13.238 13.567,-28.8026 13.567,-44.7245 0,-21.3506 -8.481,-41.8267 -23.579,-56.9239 C 122.339,8.4815 101.863,0 80.5126,0 Z"
       fill="#0f2d69"
       id="path2" />
    <path
       d="m 105.069,101.757 c 0,-13.2078 -4.267,-22.113 -15.3362,-26.0246 2.7444,-1.1546 5.1549,-2.9799 7.0104,-5.3085 2.4675,-2.8861 3.7998,-6.5716 3.7488,-10.3683 0,-2.8651 -0.7872,-8.5903 -5.8214,-12.5323 C 91.2162,44.8563 88.158,43.571 80.853,43.571 h -3.6982 c -0.1169,0 -0.2235,0 -0.3658,0 H 61.5491 v 72.009 h 43.5359 z m -9.8549,9.86 H 87.3554 V 87.5739 H 78.2978 V 111.643 H 71.3687 V 47.1575 h 7.1119 c 2.6721,0 6.7209,0.5893 9.5809,4.1453 1.4988,1.9089 2.4426,4.1938 2.7279,6.604 H 78.2978 v 3.556 h 12.6034 c -0.0338,1.3863 -0.2893,2.7584 -0.7569,4.0639 -0.4747,1.2778 -1.1617,2.4663 -2.032,3.5154 -1.1604,1.4914 -2.648,2.6963 -4.3479,3.5216 -1.6999,0.8253 -3.5668,1.249 -5.4565,1.2383 h -0.0762 v 3.5967 c 12.2377,0 17.0027,8.128 17.0027,23.0223 z"
       fill="#ffffff"
       id="path4" />
    <path
       d="m 52.3238,30.8406 -2.6924,-5.5829 6.6446,-3.2055 2.6924,5.588 2.2707,-1.0973 -6.1772,-12.8117 -2.2708,1.0922 2.4638,5.1054 -6.6446,3.2055 -2.4638,-5.1054 -2.2708,1.0922 6.1773,12.8168 z"
       fill="#ffffff"
       id="path6" />
    <path
       d="m 73.2025,19.9186 c 0.1879,1.1837 -0.6553,2.3317 -2.3013,2.5908 -1.2649,0.2032 -2.5399,-0.188 -3.8963,-1.1836 l -1.1227,1.8491 c 1.7983,1.336 3.4189,1.8135 5.3645,1.524 3.2918,-0.508 4.7498,-2.86 4.379,-5.146 -0.8687,-5.4153 -7.747,-2.2555 -8.2296,-5.2629 -0.1829,-1.1481 0.574,-1.9456 1.9354,-2.1641 1.3615,-0.2184 2.3419,0.2185 3.7085,1.1735 l 1.1124,-1.905 c -1.7475,-1.143 -3.0479,-1.69164 -5.1358,-1.3564 -2.8651,0.4572 -4.3383,2.4232 -3.9776,4.6685 0.8839,5.4712 7.6911,2.2403 8.1635,5.2121 z"
       fill="#ffffff"
       id="path8" />
    <path
       d="m 89.2603,21.8795 -4.9987,-0.4166 0.3251,-3.8862 4.572,0.381 0.188,-2.2301 -4.5771,-0.381 0.2896,-3.4798 5.0038,0.4166 0.1879,-2.29107 -7.5133,-0.62484 -1.1785,14.17321 7.5133,0.6248 z"
       fill="#ffffff"
       id="path10" />
    <path
       d="m 107.787,31.0641 c 3.236,1.7932 6.716,0.7976 8.423,-2.2758 l 4.099,-7.3914 -2.204,-1.2243 -4.146,7.4625 c -0.508,0.8194 -1.311,1.412 -2.244,1.655 -0.933,0.2429 -1.924,0.1176 -2.767,-0.35 -0.843,-0.4676 -1.474,-1.2416 -1.762,-2.1617 -0.288,-0.9201 -0.211,-1.9157 0.215,-2.7806 l 4.145,-7.4675 -2.204,-1.2192 -4.105,7.3914 c -1.697,3.0733 -0.701,6.5582 2.55,8.3616 z"
       fill="#ffffff"
       id="path12" />
    <path
       d="m 119.644,39.2734 7.066,-6.4872 -1.585,12.4612 1.209,1.3158 10.48,-9.6164 -1.702,-1.8542 -7.066,6.482 1.57,-12.4713 -1.199,-1.3056 -10.48,9.6215 z"
       fill="#ffffff"
       id="path14" />
    <path
       d="m 141.857,44.9115 -12.438,6.9002 1.223,2.2033 12.438,-6.9002 z"
       fill="#ffffff"
       id="path16" />
    <path
       d="m 135.239,65.796 15.215,1.4224 -0.747,-2.601 -10.861,-0.9195 8.722,-6.5227 -0.751,-2.6161 -12.131,9.3014 z"
       fill="#ffffff"
       id="path18" />
    <path
       d="m 137.221,83.6166 2.296,-0.0407 -0.087,-5.019 3.902,-0.066 0.081,4.5923 2.23,-0.0407 -0.076,-4.5872 3.495,-0.0609 0.086,5.019 2.296,-0.0407 -0.132,-7.5387 -14.218,0.2439 z"
       fill="#ffffff"
       id="path20" />
    <path
       d="m 136.144,91.4194 4.785,1.1278 -0.269,1.1277 c -0.508,1.0465 -5.405,0.7062 -6.183,3.9878 -0.091,0.4238 -0.13,0.8571 -0.116,1.2903 l 2.296,0.5436 c -0.022,-0.2144 -0.007,-0.4309 0.045,-0.6401 0.371,-1.5595 3.145,-1.7221 3.739,-2.667 0.027,0.9695 0.373,1.903 0.985,2.6554 0.612,0.7524 1.455,1.2811 2.399,1.5051 0.605,0.143 1.233,0.165 1.847,0.063 0.614,-0.102 1.202,-0.324 1.729,-0.6554 0.527,-0.3309 0.983,-0.7633 1.342,-1.2721 0.358,-0.5088 0.612,-1.0837 0.746,-1.6915 l 1.077,-4.5719 -13.848,-3.2665 z m 6.604,3.556 0.447,-1.8745 4.506,1.0617 -0.442,1.8796 c -0.06,0.3129 -0.182,0.6108 -0.358,0.8761 -0.177,0.2654 -0.404,0.4929 -0.67,0.6693 -0.265,0.1765 -0.563,0.2982 -0.876,0.3582 -0.313,0.06 -0.634,0.057 -0.946,-0.0088 -0.307,-0.0823 -0.594,-0.2254 -0.844,-0.421 -0.251,-0.1955 -0.459,-0.4395 -0.613,-0.7172 -0.154,-0.2778 -0.251,-0.5837 -0.284,-0.8996 -0.033,-0.3159 -0.003,-0.6352 0.09,-0.939 z"
       fill="#ffffff"
       id="path22" />
    <path
       d="m 141.772,108.539 c -4.917,-2.652 -6.492,4.714 -9.144,3.297 -1.051,-0.574 -1.448,-1.941 -0.655,-3.404 0.61,-1.127 1.697,-1.9 3.312,-2.367 l -0.782,-2.032 c -2.154,0.615 -3.526,1.605 -4.461,3.343 -1.584,2.931 -0.619,5.506 1.418,6.604 4.831,2.606 6.507,-4.781 9.189,-3.333 1.016,0.554 1.194,1.641 0.539,2.855 -0.655,1.214 -1.6,1.722 -3.19,2.225 l 0.838,2.032 c 1.966,-0.696 3.205,-1.407 4.201,-3.251 1.397,-2.52 0.737,-4.887 -1.265,-5.969 z"
       fill="#ffffff"
       id="path24" />
    <path
       d="m 124.526,116.299 -1.629,1.922 10.853,9.194 1.629,-1.922 z"
       fill="#ffffff"
       id="path26" />
    <path
       d="m 123.246,134.203 -7.244,-9.423 -2.002,1.534 7.244,9.428 -3.459,2.662 1.422,1.849 8.926,-6.858 -1.423,-1.854 z"
       fill="#ffffff"
       id="path28" />
    <path
       d="m 102.743,132.776 -2.337,0.944 1.763,4.354 -0.981,10.678 2.617,-1.062 0.579,-7.508 5.638,4.994 2.617,-1.062 -8.133,-6.985 z"
       fill="#ffffff"
       id="path30" />
    <path
       d="m 57.5409,135.285 4.7599,1.595 -1.2395,3.698 -4.3535,-1.457 -0.7112,2.118 4.3535,1.458 -1.1074,3.312 -4.76,-1.59 -0.7315,2.174 7.1526,2.398 4.5162,-13.487 -7.1476,-2.393 z"
       fill="#ffffff"
       id="path32" />
    <path
       d="m 49.977,128.285 c -2.8143,-1.788 -5.4509,-1.016 -6.6904,0.95 -2.9413,4.633 4.3079,6.827 2.6772,9.403 -0.6198,0.975 -1.717,1.072 -2.8854,0.335 -1.1684,-0.736 -1.6053,-1.717 -1.9965,-3.337 l -2.098,0.691 c 0.5486,2.032 1.1786,3.296 2.9464,4.419 2.4536,1.555 4.8616,1.062 6.096,-0.858 2.9921,-4.72 -4.2469,-6.813 -2.6467,-9.337 0.6401,-1.016 2.032,-1.306 3.4391,-0.417 1.0821,0.686 1.7781,1.829 2.1337,3.47 l 2.0624,-0.635 c -0.4775,-2.195 -1.3716,-3.633 -3.0378,-4.684 z"
       fill="#ffffff"
       id="path34" />
    <path
       d="m 39.248,119.913 -1.7018,-1.854 -8.763,8.026 -2.9515,-3.22 -1.7221,1.579 7.6048,8.301 1.7221,-1.58 -2.9515,-3.22 z"
       fill="#ffffff"
       id="path36" />
    <path
       d="m 24.5973,100.751 1.1684,3.384 2.2301,-0.767 -3.1597,-9.1647 -2.2301,0.7671 1.1734,3.3985 -11.4706,3.9571 0.4268,1.23 4.638,4.094 1.3868,-1.575 -2.6873,-2.382 z"
       fill="#ffffff"
       id="path38" />
    <path
       d="m 14.2698,90.4339 c 2.7991,-0.1981 4.6888,-2.2453 4.4755,-5.2883 -0.0335,-0.9286 -0.4163,-1.8103 -1.0719,-2.4688 2.0777,0.32 3.4138,1.8796 4.064,4.5415 0,0.2845 0.0406,0.5689 0.0406,0.8737 l 2.2708,-0.1625 c 0.0091,-0.3991 -0.013,-0.7982 -0.0661,-1.1938 -0.8534,-4.892 -4.2417,-6.9748 -9.2252,-6.604 h -0.1626 c -3.2613,0.2286 -5.7861,1.9558 -5.53719,5.5423 0.18796,2.8752 2.23009,4.9682 5.21209,4.7599 z M 11.171,85.5216 c -0.1067,-1.524 0.955,-2.6772 2.6365,-2.794 1.6815,-0.1169 2.855,0.8991 2.9617,2.3977 0.0287,0.3583 -0.017,0.7186 -0.1345,1.0582 -0.1174,0.3397 -0.304,0.6513 -0.5479,0.9153 -0.2439,0.2639 -0.5399,0.4745 -0.8692,0.6183 -0.3294,0.1439 -0.6849,0.2179 -1.0443,0.2175 -1.6815,0.1168 -2.8956,-0.9144 -3.0023,-2.413 z"
       fill="#ffffff"
       id="path40" />
    <path
       d="m 14.0006,72.659 c 2.7533,0.5487 5.1156,-0.9296 5.7099,-3.9217 0.2123,-0.9059 0.0744,-1.8585 -0.3861,-2.667 1.9253,0.8585 2.7991,2.7127 2.7127,5.4508 -0.0559,0.2743 -0.1117,0.5537 -0.1879,0.8535 l 2.2301,0.4419 c 0.115,-0.3839 0.2,-0.7763 0.254,-1.1735 0.4623,-4.9428 -2.2555,-7.8435 -7.1628,-8.8137 L 17.013,62.7988 c -3.2105,-0.6401 -6.096,0.3607 -6.797,3.8913 -0.56389,2.8295 0.8534,5.3898 3.7846,5.9689 z m -1.6967,-5.5524 c 0.2946,-1.4783 1.6256,-2.3317 3.2766,-2.0015 1.651,0.3302 2.54,1.6154 2.225,3.0886 -0.3149,1.4732 -1.6053,2.3571 -3.236,2.032 -1.6307,-0.3251 -2.5552,-1.6459 -2.2656,-3.1191 z"
       fill="#ffffff"
       id="path42" />
    <path
       d="m 18.7351,53.9545 c -0.8687,-1.6307 -0.9855,-2.7787 -0.3912,-3.9776 0.1293,-0.282 0.3158,-0.534 0.5476,-0.7402 0.2318,-0.2061 0.5039,-0.3619 0.799,-0.4574 0.2951,-0.0955 0.6069,-0.1287 0.9155,-0.0974 0.3086,0.0312 0.6074,0.1263 0.8774,0.279 1.9659,0.9754 2.8194,6.3093 3.8659,9.9314 l 1.7474,0.8636 4.3993,-8.9052 -2.1133,-1.0465 -2.7787,5.6286 c -0.8331,-3.1293 -1.6815,-7.559 -4.2875,-8.8443 -2.2251,-1.1023 -4.6939,-0.4622 -6.0401,2.2708 -1.0566,2.1336 -0.6249,4.1554 0.3454,5.9537 z"
       fill="#ffffff"
       id="path44" />
    <path
       d="m 82.6259,142.661 c -0.4991,-0.048 -1.0014,0.052 -1.4435,0.289 -0.4422,0.237 -0.8044,0.599 -1.041,1.041 -0.2366,0.442 -0.3371,0.944 -0.2887,1.443 0.0483,0.5 0.2434,0.973 0.5605,1.362 0.3171,0.388 0.7421,0.674 1.2215,0.821 0.4793,0.148 0.9916,0.15 1.4721,0.006 0.4806,-0.143 0.908,-0.425 1.2283,-0.811 0.3203,-0.386 0.5193,-0.858 0.5717,-1.357 0.0351,-0.333 0.0039,-0.67 -0.092,-0.992 -0.0958,-0.321 -0.2544,-0.62 -0.4664,-0.88 -0.2121,-0.26 -0.4735,-0.475 -0.7691,-0.633 -0.2956,-0.158 -0.6196,-0.256 -0.9534,-0.289 z"
       fill="#ffffff"
       id="path46" />
    <path
       d="m 32.4509,37.2262 c 0.4991,0.0484 1.0014,-0.0521 1.4435,-0.2887 0.4422,-0.2366 0.8044,-0.5988 1.041,-1.0409 0.2367,-0.4422 0.3371,-0.9445 0.2887,-1.4436 -0.0483,-0.4991 -0.2434,-0.9728 -0.5605,-1.3613 -0.3172,-0.3884 -0.7422,-0.6743 -1.2215,-0.8216 -0.4794,-0.1473 -0.9916,-0.1494 -1.4721,-0.0061 -0.4806,0.1433 -0.908,0.4257 -1.2283,0.8116 -0.3203,0.3858 -0.5193,0.8578 -0.5717,1.3566 -0.0351,0.3334 -0.0039,0.6705 0.092,0.9919 0.0958,0.3213 0.2543,0.6204 0.4664,0.8802 0.212,0.2597 0.4734,0.4749 0.769,0.6331 0.2957,0.1583 0.6197,0.2564 0.9535,0.2888 z"
       fill="#ffffff"
       id="path48" />
  </g>
  <defs
     id="defs55">
    <clipPath
       id="clip0_1154_279">
      <rect
         width="161"
         height="161"
         fill="#ffffff"
         id="rect52"
         x="0"
         y="0" />
    </clipPath>
  </defs>
</svg>
