<?xml version="1.0" encoding="UTF-8" standalone="no"?>
<!-- Generator: Adobe Illustrator 26.0.1, SVG Export Plug-In . SVG Version: 6.00 Build 0)  -->

<svg
   version="1.1"
   id="Layer_1"
   x="0px"
   y="0px"
   viewBox="0 0 120 120"
   xml:space="preserve"
   sodipodi:docname="HSE Ru 120x120.svg"
   width="120"
   height="120"
   inkscape:version="1.4.3 (0d15f75, 2025-12-25)"
   xmlns:inkscape="http://www.inkscape.org/namespaces/inkscape"
   xmlns:sodipodi="http://sodipodi.sourceforge.net/DTD/sodipodi-0.dtd"
   xmlns="http://www.w3.org/2000/svg"
   xmlns:svg="http://www.w3.org/2000/svg"><defs
   id="defs23" /><sodipodi:namedview
   id="namedview23"
   pagecolor="#ffffff"
   bordercolor="#000000"
   borderopacity="0.25"
   inkscape:showpageshadow="2"
   inkscape:pageopacity="0.0"
   inkscape:pagecheckerboard="true"
   inkscape:deskcolor="#d1d1d1"
   inkscape:zoom="2.8603382"
   inkscape:cx="23.948217"
   inkscape:cy="38.107382"
   inkscape:window-width="1857"
   inkscape:window-height="1057"
   inkscape:window-x="55"
   inkscape:window-y="-8"
   inkscape:window-maximized="1"
   inkscape:current-layer="Layer_1" />
<style
   type="text/css"
   id="style1">
	.st0{fill:#102D69;}
	.st1{fill:#FFFFFF;}
</style>
<g
   id="g23"
   transform="matrix(2.3519347,0,0,2.3519347,-5.7497443e-4,-0.00369463)">
	
		<circle
   transform="matrix(0.2011,-0.9796,0.9796,0.2011,-4.6085,45.373)"
   class="st0"
   cx="25.51"
   cy="25.51"
   id="ellipse1"
   r="25.51" />
	<g
   id="g22">
		<path
   class="st1"
   d="m 44.02,22.61 1.65,-0.15 h 0.02 c 0.06,0.38 0.1,0.77 0.14,1.15 0.04,0.38 0.06,0.77 0.08,1.16 h -0.02 l -1.65,0.15 0.02,0.71 4,-0.38 -0.03,-0.71 -1.68,0.16 H 46.54 C 46.52,24.31 46.5,23.93 46.46,23.54 46.42,23.16 46.38,22.77 46.32,22.39 h 0.01 l 1.69,-0.16 -0.11,-0.7 -4,0.38 z"
   id="path1" />
		<path
   class="st1"
   d="m 14.91,10.08 -0.87,-1.43 0.42,-0.26 1.19,0.46 c 0.6,0.24 1.19,0.32 1.61,-0.15 L 16.94,8.17 c -0.2,0.22 -0.52,0.21 -0.98,0.05 l -1.3,-0.47 0.43,-2.45 -0.72,0.41 -0.31,2.15 -0.35,0.22 -0.88,-1.44 -0.58,0.41 2.09,3.42 z"
   id="path2" />
		<path
   class="st1"
   d="M 23.67,3.86 23.64,3.47 c 0.07,-0.01 0.14,-0.01 0.2,-0.02 0.4,-0.03 0.8,-0.05 1.2,-0.06 L 25.3,6.78 26.01,6.73 25.75,3.4 25.7,2.76 c -0.38,0 -0.77,0 -1.15,0.02 L 23.03,2.9 c -0.03,0 -0.07,0.01 -0.1,0.01 l 0.05,0.63 0.01,0.16 c 0.18,2.42 -0.18,2.71 -0.59,2.74 -0.09,0.01 -0.18,0 -0.23,-0.02 l -0.02,0.59 c 0.11,0.02 0.34,0.04 0.5,0.03 0.78,-0.06 1.21,-0.61 1.02,-3.18 z"
   id="path3" />
		<path
   class="st1"
   d="M 19.75,7.78 C 20.93,7.39 21.48,6.21 21.12,5.13 20.76,4.03 19.65,3.4 18.46,3.79 c -1.18,0.39 -1.73,1.57 -1.37,2.65 0.36,1.1 1.48,1.73 2.66,1.34 z M 18.66,4.42 c 0.77,-0.25 1.51,0.2 1.76,0.95 0.12,0.38 0.1,0.77 -0.05,1.09 -0.15,0.32 -0.42,0.58 -0.81,0.71 -0.77,0.25 -1.51,-0.2 -1.76,-0.95 -0.2,-0.63 0.01,-1.26 0.52,-1.6 0.11,-0.08 0.21,-0.16 0.34,-0.2 z"
   id="path4" />
		<path
   class="st1"
   d="M 41.02,11.53 C 41.79,10.69 41.78,9.39 40.86,8.55 40.3,8.05 39.63,7.88 39,8.02 l 0.16,0.71 c 0.43,-0.11 0.89,-0.02 1.26,0.31 0.51,0.47 0.57,1.16 0.23,1.72 -0.3,-0.31 -0.61,-0.61 -0.93,-0.89 -0.13,-0.12 -0.27,-0.24 -0.4,-0.36 l -0.41,0.48 c 0.13,0.11 0.26,0.23 0.39,0.34 0.32,0.29 0.63,0.59 0.93,0.9 -0.53,0.39 -1.24,0.4 -1.76,-0.07 C 38.09,10.82 37.96,10.35 38.05,9.9 L 37.34,9.8 c -0.09,0.65 0.13,1.34 0.7,1.85 0.92,0.84 2.2,0.73 2.98,-0.12 z"
   id="path5" />
		<path
   class="st1"
   d="m 30.9,22.16 c 0.88,-1.02 1.25,-2.26 1.25,-3.44 0,-0.95 -0.26,-2.85 -1.93,-4.16 -1.15,-0.89 -2.16,-1.31 -4.59,-1.31 H 24.4 c -0.04,0 -0.07,0 -0.12,0 h -5.06 v 23.91 h 14.45 v -4.59 c 0,-4.39 -1.42,-7.34 -5.09,-8.64 1.15,-0.48 1.86,-1.21 2.32,-1.77 z M 28.03,21.7 c -0.66,0.82 -1.73,1.58 -3.25,1.58 -0.01,0 -0.02,0 -0.03,0 v 1.19 c 4.06,0 5.65,2.7 5.65,7.64 v 3.72 0 h -2.61 v -7.98 h -3.01 v 7.99 h -2.3 v -21.4 h 2.37 c 0.89,0 2.23,0.2 3.18,1.38 0.49,0.6 0.8,1.39 0.9,2.19 h -4.15 v 1.18 h 4.18 c -0.03,0.76 -0.19,1.61 -0.93,2.51 z"
   id="path6" />
		<path
   class="st1"
   d="m 34.51,7.74 c 0.4,0.2 0.89,0.04 1.09,-0.36 0.2,-0.4 0.04,-0.89 -0.36,-1.09 -0.4,-0.2 -0.89,-0.04 -1.09,0.36 -0.2,0.4 -0.04,0.89 0.36,1.09 z"
   id="path7" />
		<path
   class="st1"
   d="m 28.2,6.03 v 0 c 0.32,0.04 0.63,0.09 0.95,0.15 0.31,0.06 0.63,0.13 0.94,0.2 v 0 l 0.21,1.02 0.75,0.21 -1,-4.4 L 29.4,3.1 26.87,6.83 27.63,6.9 Z M 29.55,4 29.94,5.71 C 29.71,5.66 29.49,5.61 29.26,5.57 29.03,5.53 28.81,5.49 28.58,5.45 Z"
   id="path8" />
		<path
   class="st1"
   d="m 44.26,16.32 c -1.08,0.4 -1.66,1.54 -1.23,2.71 0.43,1.17 1.64,1.66 2.71,1.26 1.08,-0.4 1.66,-1.54 1.23,-2.71 -0.44,-1.17 -1.64,-1.66 -2.71,-1.26 z m 2.09,1.48 c 0.28,0.75 -0.13,1.52 -0.87,1.79 -0.07,0.03 -0.14,0.02 -0.2,0.04 -0.68,0.16 -1.37,-0.13 -1.62,-0.82 -0.18,-0.47 -0.08,-0.95 0.2,-1.3 0.04,-0.06 0.1,-0.11 0.15,-0.16 0.01,-0.01 0.02,-0.03 0.03,-0.04 0.03,-0.03 0.07,-0.05 0.11,-0.08 0.04,-0.03 0.08,-0.06 0.12,-0.09 0,0 0,0 0.01,0 0.08,-0.05 0.16,-0.09 0.25,-0.12 0.37,-0.14 0.76,-0.13 1.09,0 0.32,0.14 0.59,0.4 0.73,0.78 z"
   id="path9" />
		<path
   class="st1"
   d="m 40.6,14.41 1.4,-0.92 0.27,0.41 -0.42,1.2 c -0.22,0.61 -0.28,1.2 0.2,1.61 l 0.52,-0.34 C 42.35,16.18 42.35,15.86 42.49,15.4 l 0.42,-1.32 2.46,0.35 -0.44,-0.71 -2.16,-0.24 -0.23,-0.34 1.41,-0.93 -0.43,-0.57 -3.35,2.2 z"
   id="path10" />
		<path
   class="st1"
   d="M 6.19,18.61 C 6.64,18.65 7.03,18.33 7.08,17.88 7.12,17.43 6.8,17.04 6.35,16.99 5.9,16.95 5.51,17.27 5.46,17.72 c -0.05,0.45 0.28,0.84 0.73,0.89 z"
   id="path11" />
		<polygon
   class="st1"
   points="33.52,46.8 34.17,46.54 32.94,42.71 32.32,42.96 31.09,46.46 30.19,43.65 29.5,43.81 30.74,47.65 31.41,47.48 32.62,44.01 "
   id="polygon11" />
		<path
   class="st1"
   d="m 25.52,45.47 c -0.45,0 -0.81,0.36 -0.81,0.81 0,0.45 0.36,0.81 0.81,0.81 0.45,0 0.81,-0.36 0.81,-0.81 0,-0.44 -0.36,-0.81 -0.81,-0.81 z"
   id="path12" />
		<path
   class="st1"
   d="m 36.22,40.88 0.88,1.43 -0.42,0.26 -1.19,-0.45 c -0.6,-0.24 -1.19,-0.31 -1.61,0.16 l 0.33,0.53 c 0.2,-0.22 0.52,-0.21 0.98,-0.05 l 1.31,0.46 -0.41,2.45 0.72,-0.42 0.3,-2.16 0.35,-0.22 0.89,1.43 0.58,-0.41 -2.11,-3.41 z"
   id="path13" />
		<polygon
   class="st1"
   points="43,40.06 43.44,39.52 40.47,36.79 40.05,37.32 40.71,40.97 38.54,38.97 38.03,39.45 41,42.18 41.5,41.69 40.84,38.08 "
   id="polygon13" />
		<path
   class="st1"
   d="m 46.35,27.06 c -1.14,-0.2 -2.22,0.49 -2.43,1.72 -0.22,1.23 0.57,2.26 1.7,2.46 1.14,0.2 2.22,-0.49 2.43,-1.72 0.21,-1.23 -0.58,-2.27 -1.7,-2.46 z m 1.05,2.33 c -0.03,0.2 -0.11,0.38 -0.21,0.53 -0.3,0.45 -0.87,0.68 -1.45,0.58 -0.69,-0.12 -1.18,-0.65 -1.2,-1.31 0,-0.09 0,-0.19 0.02,-0.29 0.03,-0.2 0.11,-0.38 0.21,-0.53 0.3,-0.45 0.87,-0.68 1.45,-0.58 0.79,0.14 1.32,0.81 1.18,1.6 z"
   id="path14" />
		<path
   class="st1"
   d="m 18.53,44.12 c -0.16,0.54 0.08,0.89 0.49,1.18 -0.33,0.07 -0.67,0.24 -0.81,0.71 -0.08,0.27 -0.05,0.51 0.07,0.73 0.16,0.29 0.47,0.54 0.91,0.67 l 1.48,0.38 1.12,-3.87 -1.52,-0.44 c -0.85,-0.26 -1.53,-0.06 -1.74,0.64 z m 0.94,2.68 c -0.44,-0.13 -0.63,-0.39 -0.54,-0.69 0.02,-0.07 0.05,-0.13 0.08,-0.18 0.11,-0.15 0.28,-0.21 0.5,-0.2 0.1,0 0.2,0.02 0.31,0.05 l 0.66,0.19 -0.3,1.03 z m 0.37,-1.64 C 19.3,45 19.1,44.73 19.19,44.4 c 0.08,-0.27 0.29,-0.4 0.58,-0.38 0.1,0 0.21,0.02 0.32,0.06 l 0.86,0.25 -0.31,1.07 z"
   id="path15" />
		<path
   class="st1"
   d="m 42.98,32.28 1.42,0.81 c 0.48,0.27 1.05,0.58 1.52,0.84 l -0.01,0.01 C 45.4,33.82 42.44,33.46 42.44,33.46 L 42.18,34 c 0,0 2.04,2.24 2.43,2.58 L 44.6,36.6 c -0.49,-0.25 -1.07,-0.5 -1.55,-0.71 l -1.52,-0.66 -0.4,0.64 3.76,1.57 0.51,-0.87 c 0,0 -1.89,-2.06 -2.24,-2.35 l 0.01,-0.02 c 0.45,0.1 3.2,0.4 3.2,0.4 l 0.39,-0.95 -3.52,-2.07 z"
   id="path16" />
		<path
   class="st1"
   d="M 7.29,29.82 6.28,29.57 v 0 C 6.21,29.26 6.16,28.94 6.11,28.63 6.05,28.32 6.01,28 5.98,27.68 v 0 l 0.88,-0.55 -0.05,-0.78 -3.8,2.43 0.1,0.65 4.37,1.12 z M 5.38,28.05 c 0.03,0.23 0.06,0.46 0.1,0.69 0.04,0.23 0.08,0.45 0.12,0.68 L 3.9,28.99 Z"
   id="path17" />
		<path
   class="st1"
   d="m 14.69,42.37 c -0.41,0.7 -0.11,1.4 0.67,1.87 l 0.55,0.33 -0.74,1.26 0.61,0.36 2.06,-3.49 -1.16,-0.7 c -0.81,-0.47 -1.58,-0.33 -1.99,0.37 z m 1.53,1.66 -0.53,-0.31 c -0.46,-0.27 -0.61,-0.62 -0.4,-0.98 0.12,-0.2 0.27,-0.31 0.45,-0.34 0.18,-0.03 0.39,0.03 0.62,0.16 l 0.54,0.32 z"
   id="path18" />
		<path
   class="st1"
   d="m 9.77,15.43 c 0.96,-1.5 2.13,-2.85 3.47,-4.02 L 12.74,10.97 10.16,8.74 C 9.99,8.9 9.81,9.06 9.65,9.23 l 2.58,2.22 c -0.39,0.37 -0.76,0.75 -1.12,1.15 L 8.55,10.39 c -0.16,0.18 -0.31,0.36 -0.47,0.54 l 2.56,2.21 C 10.3,13.54 9.98,13.96 9.68,14.4 L 7.1,12.18 c -0.14,0.19 -0.27,0.39 -0.41,0.58 l 2.58,2.23 z"
   id="path19" />
		<path
   class="st1"
   d="m 4.02,25.02 c 0.69,0.06 1.08,-0.36 1.22,-0.69 l 0.71,0.61 c 0.19,0.17 0.32,0.49 0.24,0.71 L 6.8,25.64 C 6.95,25.31 6.87,24.83 6.39,24.43 l -0.95,-0.8 0.04,-0.5 1.45,0.13 0.1,-0.72 -4.01,-0.32 c -0.04,0.22 -0.13,1.11 -0.14,1.23 -0.1,1.11 0.44,1.52 1.14,1.57 z m -0.41,-2.03 1.2,0.1 -0.04,0.46 C 4.74,23.96 4.5,24.31 4.08,24.27 3.76,24.24 3.51,24.05 3.55,23.47 3.57,23.34 3.58,23.18 3.61,22.99 Z"
   id="path20" />
		<path
   class="st1"
   d="M 10.07,36.1 C 9.06,34.63 8.28,33.03 7.73,31.33 l -0.6,0.29 -3.06,1.5 c 0.08,0.22 0.16,0.44 0.25,0.67 l 3.05,-1.51 c 0.19,0.5 0.39,1 0.62,1.48 l -3.04,1.49 c 0.1,0.22 0.21,0.43 0.31,0.64 L 8.3,34.4 c 0.24,0.47 0.5,0.93 0.78,1.38 l -3.04,1.51 c 0.12,0.2 0.25,0.4 0.38,0.6 l 3.06,-1.5 z"
   id="path21" />
		
			<rect
   x="11.21"
   y="41.93"
   transform="matrix(0.5751,-0.8181,0.8181,0.5751,-28.9676,28.7895)"
   class="st1"
   width="4.0500002"
   height="0.70999998"
   id="rect21" />
		<path
   class="st1"
   d="M 11.82,38.15 C 11.3,37.59 10.61,37.38 9.97,37.47 l 0.1,0.71 c 0.45,-0.09 0.92,0.03 1.26,0.41 0.55,0.59 0.46,1.46 -0.12,1.99 C 10.62,41.12 9.77,41.15 9.22,40.56 8.88,40.2 8.79,39.73 8.9,39.3 L 8.19,39.15 c -0.13,0.62 0.04,1.3 0.54,1.84 0.85,0.91 2.15,0.91 2.98,0.14 0.85,-0.79 0.95,-2.06 0.11,-2.98 z"
   id="path22" />
	</g>
</g>
</svg>
