<?xml version="1.0" encoding="UTF-8" standalone="no"?>
<svg
   viewBox="0 0 120 120"
   version="1.1"
   id="svg6"
   sodipodi:docname="Ruflux 120x120.svg"
   width="120"
   height="120"
   inkscape:version="1.4.3 (0d15f75, 2025-12-25)"
   xmlns:inkscape="http://www.inkscape.org/namespaces/inkscape"
   xmlns:sodipodi="http://sodipodi.sourceforge.net/DTD/sodipodi-0.dtd"
   xmlns="http://www.w3.org/2000/svg"
   xmlns:svg="http://www.w3.org/2000/svg">
  <sodipodi:namedview
     id="namedview6"
     pagecolor="#ffffff"
     bordercolor="#000000"
     borderopacity="0.25"
     inkscape:showpageshadow="2"
     inkscape:pageopacity="0.0"
     inkscape:pagecheckerboard="true"
     inkscape:deskcolor="#d1d1d1"
     inkscape:zoom="5.1969714"
     inkscape:cx="56.28278"
     inkscape:cy="67.154496"
     inkscape:window-width="1857"
     inkscape:window-height="1057"
     inkscape:window-x="55"
     inkscape:window-y="-8"
     inkscape:window-maximized="1"
     inkscape:current-layer="svg6"
     showgrid="false" />
  <defs
     id="defs1">
    <style
       id="style1">.f7695eb1-da02-4eab-9b8b-07ba5f5fd966{isolation:isolate;}.aec8b72e-456a-425b-a856-45bf0783a4a7{fill:#010101;}.ae2b9a78-4a60-4677-964d-e178eba0f50e,.b05904a6-ff3c-4eab-a50d-389434fb79cd,.b0b60c31-e36a-42ce-a6cd-4632e5e56725,.b56450d9-bda8-40a7-8cb6-08a9e4b1c6d3,.b73117a1-bb72-47cd-b7d9-9bd9e6041768,.b76f85fe-c3f5-4508-a5ed-48d44893a7e8,.b9685d6e-17fa-4fe1-8cee-c069db2155dd,.bf1f5160-c9a6-44f9-b4dd-0fe570e42725,.bf3014ae-df1c-4c1d-8bc4-5bcd064d7bd3,.e3f22874-1fd9-48d6-aa0a-502fb008aa91,.f2c0ad80-f770-4bd0-8f1c-2da9147b474b,.f95ce042-756b-4ea2-ab81-a534be9f06ea{fill:none;stroke-linecap:round;stroke-linejoin:round;}.bf3014ae-df1c-4c1d-8bc4-5bcd064d7bd3{stroke:#034d26;}.ae2b9a78-4a60-4677-964d-e178eba0f50e,.b05904a6-ff3c-4eab-a50d-389434fb79cd,.b0b60c31-e36a-42ce-a6cd-4632e5e56725,.b56450d9-bda8-40a7-8cb6-08a9e4b1c6d3,.b73117a1-bb72-47cd-b7d9-9bd9e6041768,.b76f85fe-c3f5-4508-a5ed-48d44893a7e8,.bf1f5160-c9a6-44f9-b4dd-0fe570e42725,.bf3014ae-df1c-4c1d-8bc4-5bcd064d7bd3,.e3f22874-1fd9-48d6-aa0a-502fb008aa91,.f2c0ad80-f770-4bd0-8f1c-2da9147b474b,.f95ce042-756b-4ea2-ab81-a534be9f06ea{stroke-width:0.83px;}.b73117a1-bb72-47cd-b7d9-9bd9e6041768{stroke:#33869c;}.f95ce042-756b-4ea2-ab81-a534be9f06ea{stroke:#8ac653;}.b9685d6e-17fa-4fe1-8cee-c069db2155dd{stroke:#276f38;stroke-width:0.83px;}.e3f22874-1fd9-48d6-aa0a-502fb008aa91{stroke:#94ca54;}.ae2b9a78-4a60-4677-964d-e178eba0f50e{stroke:#f6eb16;}.b05904a6-ff3c-4eab-a50d-389434fb79cd{stroke:#52b848;}.b76f85fe-c3f5-4508-a5ed-48d44893a7e8{stroke:#fdc010;}.b56450d9-bda8-40a7-8cb6-08a9e4b1c6d3{stroke:#ffd240;}.f2c0ad80-f770-4bd0-8f1c-2da9147b474b{stroke:#04b04f;}.bf1f5160-c9a6-44f9-b4dd-0fe570e42725{stroke:#90b4df;}.b0b60c31-e36a-42ce-a6cd-4632e5e56725{stroke:#321547;}</style>
  </defs>
  <g
     id="g7"
     transform="translate(-0.297063,0.19753029)">
    <g
       id="ffa58c9c-9035-41d4-9b17-27becccab57e"
       data-name="Layer 1"
       transform="translate(25.164563,0.54424527)">
      <g
         class="f7695eb1-da02-4eab-9b8b-07ba5f5fd966"
         id="g6">
        <path
           class="aec8b72e-456a-425b-a856-45bf0783a4a7"
           d="M 1.72,18.72 V 3.11 h 6.92 a 9.19,9.19 0 0 1 3.17,0.42 3.43,3.43 0 0 1 1.74,1.47 4.48,4.48 0 0 1 0.65,2.36 3.93,3.93 0 0 1 -1.08,2.8 5.43,5.43 0 0 1 -3.32,1.46 5.57,5.57 0 0 1 1.25,0.77 11.11,11.11 0 0 1 1.71,2.08 l 2.72,4.25 h -2.6 L 10.81,15.47 C 10.21,14.54 9.71,13.82 9.32,13.32 A 4.59,4.59 0 0 0 8.27,12.32 3.13,3.13 0 0 0 7.33,11.9 6.34,6.34 0 0 0 6.18,11.83 h -2.4 v 6.93 z M 3.78,10 H 8.22 A 6.81,6.81 0 0 0 10.44,9.71 2.36,2.36 0 0 0 11.65,8.77 2.52,2.52 0 0 0 12.07,7.37 2.36,2.36 0 0 0 11.27,5.54 3.83,3.83 0 0 0 8.72,4.83 H 3.78 Z"
           id="path1" />
        <path
           class="aec8b72e-456a-425b-a856-45bf0783a4a7"
           d="M 24.61,18.72 V 17.06 A 4.14,4.14 0 0 1 21,19 a 4.51,4.51 0 0 1 -1.87,-0.39 3,3 0 0 1 -1.29,-1 3.58,3.58 0 0 1 -0.59,-1.42 9.52,9.52 0 0 1 -0.12,-1.79 v -7 h 1.92 v 6.27 a 11,11 0 0 0 0.12,2 2,2 0 0 0 0.83,1.23 2.44,2.44 0 0 0 1.45,0.43 3.18,3.18 0 0 0 1.55,-0.44 2.46,2.46 0 0 0 1.07,-1.21 6,6 0 0 0 0.32,-2.21 V 7.41 h 1.91 v 11.31 z"
           id="path2" />
        <path
           class="aec8b72e-456a-425b-a856-45bf0783a4a7"
           d="M 29.68,18.72 V 3.11 H 40.21 V 5 h -8.46 v 4.78 h 7.33 v 1.85 h -7.33 v 7.09 z"
           id="path3" />
        <path
           class="aec8b72e-456a-425b-a856-45bf0783a4a7"
           d="M 42.61,18.72 V 3.11 h 1.92 v 15.61 z"
           id="path4" />
        <path
           class="aec8b72e-456a-425b-a856-45bf0783a4a7"
           d="m 54.92,18.72 v -1.66 a 4.14,4.14 0 0 1 -3.59,1.94 4.51,4.51 0 0 1 -1.87,-0.39 3,3 0 0 1 -1.29,-1 3.58,3.58 0 0 1 -0.59,-1.42 9.52,9.52 0 0 1 -0.12,-1.79 v -7 h 1.92 v 6.27 a 12.31,12.31 0 0 0 0.11,2 2,2 0 0 0 0.77,1.19 2.42,2.42 0 0 0 1.45,0.43 3.21,3.21 0 0 0 1.62,-0.44 2.51,2.51 0 0 0 1.07,-1.21 6,6 0 0 0 0.31,-2.21 V 7.41 h 1.92 v 11.31 z"
           id="path5" />
        <path
           class="aec8b72e-456a-425b-a856-45bf0783a4a7"
           d="m 58.36,18.72 4.13,-5.88 -3.82,-5.43 h 2.39 l 1.74,2.65 c 0.33,0.51 0.59,0.93 0.79,1.27 0.31,-0.47 0.6,-0.88 0.86,-1.25 l 1.91,-2.67 h 2.29 l -3.91,5.33 4.21,6 h -2.36 l -2.32,-3.51 -0.62,-1 -3,4.46 z"
           id="path6" />
      </g>
    </g>
    <g
       id="ef67171f-5f17-4528-b1bf-71d388a38af0"
       data-name="graphs"
       transform="translate(25.164563,0.54424527)">
      <path
         id="ebebd35e-b94d-4981-8099-6e187417f91f"
         data-name="path6498"
         class="bf3014ae-df1c-4c1d-8bc4-5bcd064d7bd3"
         d="m 1.73,23.3 c 2.33,2.51 3.5,5.86 5.63,8.46 1.28,0.86 1.59,2.58 2.76,3.47 a 23.78,23.78 0 0 1 3.64,4.07 c 0.53,0.47 1.32,0.75 1.39,1.57 1.75,1.58 2.82,3.67 4.06,5.64 a 18.53,18.53 0 0 0 5.44,4.39 c 1.35,1.31 3.43,1.56 4.8,2.83 0.28,0.71 1.17,1.12 1.39,1.89 0.41,0.57 0.22,1.27 0.5,1.85 0,0.48 0.73,0.72 1.06,1 0,0.4 0.25,0.84 0.28,1.24 0.06,0.7 0.65,1.18 0.55,1.9 -0.29,0.58 0.12,1.38 -0.37,1.84 -0.18,0.26 0,0.49 0.23,0.65 -0.17,0.64 -0.06,1.28 -0.28,1.89 -0.21,0.33 0.14,0.61 0.18,0.93 a 4.18,4.18 0 0 1 -0.32,0.92 7.82,7.82 0 0 1 -0.19,3.47 13.64,13.64 0 0 1 0.52,1.87 c 0.16,0.64 -0.08,1.43 0.5,1.9 0.58,0.47 0.57,1.28 1,1.84 0.6,1.22 1,2.53 1.52,3.79 0.34,0.73 1,1.37 1.15,2.18 1.41,3.55 2.07,7.33 3.17,11 0.53,1.78 1.16,3.55 1.75,5.31 a 19.09,19.09 0 0 0 1.42,4.39" />
      <path
         id="f06a5b4d-3a17-4ddd-a0e3-d0a5b57bde72"
         data-name="path6558"
         class="b73117a1-bb72-47cd-b7d9-9bd9e6041768"
         d="m 61.26,23.38 a 18.84,18.84 0 0 1 0.27,10 c -0.2,1.82 -1.11,3.5 -1.21,5.32 -0.39,3.13 -0.37,6.4 -1.39,9.42 -0.86,2.4 -2.44,4.48 -3.29,6.88 -1,2.25 -2.91,3.93 -4.63,5.62 -1.73,1.87 -3.43,3.78 -5.14,5.68 -2.42,2.62 -6.17,5.35 -5.55,9.37 0.78,4.59 2.13,9.13 2.24,13.81 a 233,233 0 0 0 1.08,25.08" />
      <path
         id="b11b62eb-aa19-4fad-909f-e3a3b57225dd"
         data-name="path6544"
         class="f95ce042-756b-4ea2-ab81-a534be9f06ea"
         d="m 51.06,23.37 a 80,80 0 0 1 0.21,12.19 46.35,46.35 0 0 1 -1.44,12.89 47.36,47.36 0 0 1 -1.83,6.23 2.76,2.76 0 0 0 -0.56,1.89 c 0.09,0.56 -0.27,1 -0.18,1.57 -0.87,2.37 -2.56,4.4 -3.15,6.88 -1.52,4.57 -2.82,9.27 -2.24,14.13 0.79,11.8 1.29,23.62 1.8,35.43" />
      <path
         id="a3a5d6af-4250-43c6-8e92-56747bb1fba2"
         data-name="path6510"
         class="b9685d6e-17fa-4fe1-8cee-c069db2155dd"
         d="m 23.44,23.33 c 0.63,0.52 0.48,1.29 1.06,1.85 a 17.45,17.45 0 0 1 2.5,3.14 4.14,4.14 0 0 1 0.74,2.54 14.86,14.86 0 0 1 1.51,3.14 c 0.51,1.22 1.73,1.95 2.21,3.14 a 7.74,7.74 0 0 1 0.83,2.22 c 0.25,0.63 0.79,1.22 1,1.9 0.9,1.14 1.16,2.59 2,3.74 0.8,0.42 0.39,1.46 1.06,1.9 0.27,0.28 0.06,0.59 0.09,0.92 0.03,0.33 0.38,0.83 0.23,1.25 -0.08,0.69 0.64,1.41 1.06,1.89 a 8.94,8.94 0 0 0 1.89,2.18 4.49,4.49 0 0 1 0.64,1.86 c 0.25,0.29 0.68,0.59 0.78,1 1.65,1.37 0.41,3.79 1.42,5.32 -0.09,0.55 0.2,1.07 -0.18,1.57 -0.16,0.3 0.08,0.66 -0.19,0.92 0.17,0.4 -0.22,0.85 -0.32,1.25 0.3,0.37 -0.23,0.58 -0.19,1 a 12.1,12.1 0 0 0 -1.53,4.71 c -0.48,0.6 0.23,1.16 0.18,1.85 a 11.5,11.5 0 0 0 -0.14,2.81 c 0.19,0.51 -0.24,1.16 0.13,1.57 -0.12,1.55 0.16,3.23 -0.46,4.71 a 19.76,19.76 0 0 1 -0.7,3.47 c -0.42,1.66 0.44,3.36 0.73,5 0.41,2.29 0.72,4.63 1.19,6.93 1,5.83 1.56,11.72 2.61,17.55" />
      <path
         id="efb2d192-2e04-49e2-ae6c-7852e60a7856"
         data-name="path6522"
         class="e3f22874-1fd9-48d6-aa0a-502fb008aa91"
         d="m 34.9,23.34 c 0.4,1.85 1.78,3.41 1.88,5.32 a 5.22,5.22 0 0 0 0.83,2.82 c 0.4,0.91 0.57,1.89 0.92,2.82 a 27.82,27.82 0 0 1 1.89,4.07 8.5,8.5 0 0 1 1.84,4.39 c 0.37,0.56 0.3,1.35 0.74,1.89 a 5.23,5.23 0 0 1 1.28,2.82 5,5 0 0 1 0.32,3.14 c -0.05,0.76 -0.67,1.43 -0.46,2.22 a 21.42,21.42 0 0 1 -0.33,5.31 c 0.78,0.44 0.61,1.16 0.5,1.89 1,2.17 0.2,2.14 -0.05,4.07 a 8.19,8.19 0 0 0 -0.56,2.49 16.57,16.57 0 0 0 -1.16,3.46 c -0.25,1.36 0.21,2.72 0.27,4.07 -0.53,4.06 -1.05,8.14 -1.68,12.24 a 114.46,114.46 0 0 0 1,12.52 c 0.47,5.23 1,10.46 1.46,15.7" />
      <path
         id="fd5141d5-8eb8-4efd-a945-566c726d5a91"
         data-name="path6524"
         class="ae2b9a78-4a60-4677-964d-e178eba0f50e"
         d="m 43.69,76.34 c -0.48,-3.66 -1.09,-7.33 -1.23,-11 -0.18,-1.13 -0.85,-2.27 -0.46,-3.42 0.22,-1.48 1.18,-2.65 1.53,-4.11 a 7.59,7.59 0 0 0 1.85,-3.41 c 0.88,-1.18 0.48,-2.77 0.89,-4.11 0.48,-0.72 0.34,-1.7 0.55,-2.49 0.1,-0.41 -0.24,-0.83 0,-1.25 A 15.1,15.1 0 0 0 46.5,40.91 21.49,21.49 0 0 0 43.23,33.7 C 42,30.59 42,26.41 41.9,23.08" />
      <path
         id="e356a478-4680-47e6-ba4b-74f68f7f3b13"
         data-name="path6526"
         class="b05904a6-ff3c-4eab-a50d-389434fb79cd"
         d="M 43.74,74.77 A 44.76,44.76 0 0 1 44.9,66 c 0.5,-1.33 0.35,-2.81 1.07,-4.06 1.57,-4.35 3.74,-8.43 5.1,-12.88 1.2,-3 0.84,-6.22 1,-9.38 0.1,-5.38 0.16,-10.89 0,-16.3" />
      <path
         id="b8de7901-b167-402b-94ad-4839c645e8e2"
         data-name="path6528"
         class="b76f85fe-c3f5-4508-a5ed-48d44893a7e8"
         d="m 43.74,76.34 c 0,-4 0.24,-8 0.15,-11.92 -0.11,-2.2 -0.38,-4.4 -0.45,-6.61 a 41.85,41.85 0 0 1 0.88,-5 64.55,64.55 0 0 1 3.68,-8.15 c 0.46,-1.27 1.13,-2.48 1.58,-3.74 0.2,-0.92 0.25,-1.91 0.46,-2.82 0,-4.82 -1,-9.79 -0.87,-14.65" />
      <path
         id="f99d4fd5-b779-4d06-97ad-763a706ae91a"
         data-name="path6532"
         class="b56450d9-bda8-40a7-8cb6-08a9e4b1c6d3"
         d="m 51.25,23.37 a 68.24,68.24 0 0 1 -0.18,16.9 c -1.53,7.61 -4.22,15 -5.29,22.58 -0.57,3.16 -1.43,6.22 -2,9.38 -0.43,3.54 -0.75,7.1 -0.89,10.67 -0.4,6.59 0.57,13.18 0.8,19.77" />
      <path
         id="b0662cd2-dd6a-4801-8c67-340981e6d3e3"
         data-name="path6546"
         class="f2c0ad80-f770-4bd0-8f1c-2da9147b474b"
         d="m 43.73,80.4 c 0,-3.13 -0.09,-6.29 0.2,-9.42 0.22,-1.76 0,-3.64 0.7,-5.31 0.7,-2.2 1.13,-4.47 2,-6.6 1.69,-3.7 3.29,-7.48 4.77,-11.27 0.63,-2.13 1,-4.38 1.44,-6.56 0.3,-1.55 0.19,-3.16 0.56,-4.71 0.3,-4.35 0.08,-8.78 0.16,-13.16" />
      <path
         id="fc8e745e-0043-4f08-b4f0-3365b5d4d381"
         data-name="path6560"
         class="bf1f5160-c9a6-44f9-b4dd-0fe570e42725"
         d="m 43.72,86.68 c -0.09,-3.45 -0.15,-6.9 -0.08,-10.34 a 18,18 0 0 1 2.09,-9.42 c 2,-3.37 4.89,-6.1 6.86,-9.42 1.57,-1.51 1.46,-3.65 1.8,-5.63 0.65,-2.41 1.24,-4.8 1.86,-7.2 a 9.17,9.17 0 0 0 1.25,-3.42 31.39,31.39 0 0 0 1.35,-5.36 c 0,-4 -0.26,-7.93 -0.17,-11.91" />
      <path
         id="aaf7703d-1963-4c8c-b31e-4ac7c842c6c9"
         data-name="path6564"
         class="b0b60c31-e36a-42ce-a6cd-4632e5e56725"
         d="m 43.61,115 c 0.29,-2.73 0.54,-33.73 0.21,-36.45 -0.25,-1.23 0.13,-2.67 -0.59,-3.74 a 6.9,6.9 0 0 1 2,-5.64 c 0.24,-1.56 2.31,-2.17 3.1,-3.46 a 8.08,8.08 0 0 0 1.39,-2.21 35,35 0 0 0 2.77,-2.81 c 1.43,-1.26 3.24,-2.26 4.07,-4.06 0.75,-1.63 2.24,-2.69 3.29,-4.06 0.54,-0.55 0.63,-1.43 1.2,-1.89 a 11.92,11.92 0 0 0 2.09,-2.5 6.38,6.38 0 0 1 1.43,-2.81 9.69,9.69 0 0 1 1.25,-2.54 c 0.19,-0.35 0.48,-0.86 0.33,-1.25 a 3.36,3.36 0 0 0 0.41,-1.58 20,20 0 0 0 1.3,-3.09 6.76,6.76 0 0 0 -0.37,-3.47 c -0.27,-0.9 -0.3,-1.9 -0.59,-2.81 A 60.56,60.56 0 0 1 66.77,24" />
    </g>
  </g>
</svg>
