<?xml version="1.0" encoding="UTF-8" standalone="no"?>
<!-- Created with Inkscape (http://www.inkscape.org/) -->

<svg
   width="120"
   height="120"
   viewBox="0 0 120 120"
   version="1.1"
   id="svg8"
   sodipodi:docname="Ruflux.svg"
   inkscape:version="1.2.2 (732a01da63, 2022-12-09)"
   inkscape:export-filename="D:\Лаборатория\RuFlux\!Обзорная статья Изв. РАН геогр\Рисунки\Рис. 7-кумулятивный NEE\Кумулятивный NEE_все_en1.png"
   inkscape:export-xdpi="300"
   inkscape:export-ydpi="300"
   xmlns:inkscape="http://www.inkscape.org/namespaces/inkscape"
   xmlns:sodipodi="http://sodipodi.sourceforge.net/DTD/sodipodi-0.dtd"
   xmlns="http://www.w3.org/2000/svg"
   xmlns:svg="http://www.w3.org/2000/svg"
   xmlns:rdf="http://www.w3.org/1999/02/22-rdf-syntax-ns#"
   xmlns:cc="http://creativecommons.org/ns#"
   xmlns:dc="http://purl.org/dc/elements/1.1/">
  <defs
     id="defs2">
    <clipPath
       id="clipPath6506"
       clipPathUnits="userSpaceOnUse">
      <path
         style="clip-rule:evenodd"
         inkscape:connector-curvature="0"
         id="path6504"
         d="m 143.04,576.36 h 238.8 v 186.36 h -238.8 z" />
    </clipPath>
    <clipPath
       id="clipPath6518"
       clipPathUnits="userSpaceOnUse">
      <path
         style="clip-rule:evenodd"
         inkscape:connector-curvature="0"
         id="path6516"
         d="m 143.04,576.36 h 238.8 v 186.36 h -238.8 z" />
    </clipPath>
    <clipPath
       id="clipPath6540"
       clipPathUnits="userSpaceOnUse">
      <path
         style="clip-rule:evenodd"
         inkscape:connector-curvature="0"
         id="path6538"
         d="m 143.04,576.36 h 238.8 v 186.36 h -238.8 z" />
    </clipPath>
    <clipPath
       id="clipPath6554"
       clipPathUnits="userSpaceOnUse">
      <path
         style="clip-rule:evenodd"
         inkscape:connector-curvature="0"
         id="path6552"
         d="m 143.04,576.36 h 238.8 v 186.36 h -238.8 z" />
    </clipPath>
  </defs>
  <sodipodi:namedview
     id="base"
     pagecolor="#ffffff"
     bordercolor="#666666"
     borderopacity="1.0"
     inkscape:pageopacity="0.0"
     inkscape:pageshadow="2"
     inkscape:zoom="3.959798"
     inkscape:cx="21.086934"
     inkscape:cy="52.275394"
     inkscape:document-units="mm"
     inkscape:current-layer="g353"
     showgrid="false"
     inkscape:window-width="1857"
     inkscape:window-height="1057"
     inkscape:window-x="55"
     inkscape:window-y="-8"
     inkscape:window-maximized="1"
     inkscape:showpageshadow="2"
     inkscape:pagecheckerboard="0"
     inkscape:deskcolor="#d1d1d1"
     showguides="true" />
  <metadata
     id="metadata5">
    <rdf:RDF>
      <cc:Work
         rdf:about="">
        <dc:format>image/svg+xml</dc:format>
        <dc:type
           rdf:resource="http://purl.org/dc/dcmitype/StillImage" />
      </cc:Work>
    </rdf:RDF>
  </metadata>
  <g
     inkscape:label="Layer 1"
     inkscape:groupmode="layer"
     id="layer1"
     transform="translate(-269.96577,-110.54694)">
    <g
       id="g233"
       transform="translate(-1.5977212)">
      <g
         id="g353"
         transform="matrix(3.7784024,0,0,3.7784024,-754.49478,-307.12603)">
        <path
           d="m 285.30451,146.37212 -0.065,-0.11415 -0.0487,-0.0979 -0.0487,-0.11413 -0.0324,-0.11411 -0.0324,-0.11411 -0.0487,-0.11414 -0.0324,-0.0978 -0.0324,-0.11411 -0.0161,-0.11408 -0.0324,-0.11412 -0.0162,-0.0978 -0.0324,-0.1141 -0.0324,-0.11412 -0.0324,-0.11412 -0.0324,-0.1141 -0.0324,-0.0978 -0.0487,-0.11414 -0.0324,-0.1141 -0.0324,-0.11412 -0.0487,-0.11414 -0.0487,-0.0979 -0.0324,-0.1141 -0.0324,-0.11412 -0.0324,-0.11411 -0.0324,-0.0978 -0.0324,-0.11411 -0.0324,-0.11411 -0.0487,-0.11414 -0.0324,-0.11411 -0.0324,-0.0978 -0.0324,-0.11411 -0.0324,-0.11411 -0.0324,-0.11411 -0.0324,-0.11412 -0.0324,-0.0978 -0.0324,-0.1141 -0.0324,-0.11412 -0.0161,-0.11408 -0.0324,-0.0979 -0.0324,-0.11412 -0.0324,-0.11411 -0.0324,-0.11411 -0.0324,-0.11411 -0.0162,-0.0978 -0.0324,-0.11411 -0.0161,-0.11409 -0.0324,-0.11411 -0.0324,-0.11411 -0.0324,-0.0978 -0.0324,-0.11412 -0.0161,-0.11408 -0.0161,-0.11409 -0.0324,-0.11411 -0.0324,-0.0978 -0.0324,-0.11411 -0.0324,-0.11412 -0.0324,-0.1141 -0.0487,-0.0979 -0.0324,-0.11412 -0.0324,-0.1141 -0.0324,-0.11412 -0.0487,-0.11414 -0.0487,-0.0979 -0.0487,-0.11413 -0.0324,-0.11411 -0.0324,-0.11412 -0.0161,-0.11408 -0.065,-0.0979 -0.0487,-0.11414 -0.065,-0.11416 -0.0976,-0.11421 -0.0487,-0.0979 -0.065,-0.11415 -0.0487,-0.11413 -0.0487,-0.11414 -0.0324,-0.11411 -0.0162,-0.0978 -0.0487,-0.11413 -0.0487,-0.11414 -0.065,-0.11415 -0.0324,-0.11412 -0.0487,-0.0979 -0.0487,-0.11414 -0.0324,-0.1141 -0.065,-0.11416 -0.065,-0.0979 -0.0324,-0.11412 -0.0324,-0.1141 -0.0324,-0.11412 -0.0813,-0.11418 -0.0977,-0.0979 -0.0976,-0.11421 -0.0487,-0.11414 1.6e-4,-0.11406 1.6e-4,-0.11407 -0.0162,-0.0978 -0.0161,-0.11408 -0.0324,-0.11412 -0.0324,-0.1141 1.5e-4,-0.11407 -0.0487,-0.0979 -0.0487,-0.11414 -0.0324,-0.11411 0.049,-0.11399 0.0327,-0.0978 0.0164,-0.11405 1.7e-4,-0.11406 -0.0324,-0.11411 0.0164,-0.11404 0.0327,-0.0978 -0.0324,-0.1141 1.7e-4,-0.11408 0.0164,-0.11403 -0.0324,-0.11412 0.0491,-0.0976 0.0327,-0.11402 0.0327,-0.11402 -0.0324,-0.11411 -0.065,-0.0979 0.0327,-0.11401 0.0327,-0.11402 0.0327,-0.11402 -0.0324,-0.11411 0.0327,-0.0978 0.0164,-0.11405 0.0164,-0.11403 -0.1139,-0.11423 0.0327,-0.11402 0.0817,-0.0976 1.5e-4,-0.11406 0.0164,-0.11405 -0.0161,-0.11408 0.0164,-0.0978 0.0327,-0.11402 -0.0161,-0.11409 0.0164,-0.11404 -0.0813,-0.11418 -0.0487,-0.0979 -0.0487,-0.11414 -0.0161,-0.11408 -0.0161,-0.1141 -0.0324,-0.1141 -0.0325,-0.0978 -0.0161,-0.1141 -0.17907,-0.11431 -0.16279,-0.1143 -0.0324,-0.11411 -0.0487,-0.0979 -0.0161,-0.1141 0.0164,-0.11404 -0.0324,-0.1141 -0.0487,-0.0979 -0.0487,-0.11413 -0.0487,-0.11414 -0.0813,-0.11418 -0.0976,-0.1142 -0.0976,-0.0979 -0.1139,-0.11422 -0.0487,-0.11414 -0.1302,-0.11425 -0.17908,-0.11432 -0.17911,-0.098 -0.22797,-0.1144 -0.29314,-0.11448 -0.21168,-0.11436 -0.19539,-0.0981 -0.13021,-0.11425 -0.14649,-0.11427 -0.19538,-0.11434 -0.17908,-0.11432 -0.1954,-0.0981 -0.14649,-0.11427 -0.17908,-0.11432 -0.1628,-0.1143 -0.14649,-0.11428 -0.0813,-0.0979 -0.0813,-0.11418 -0.0976,-0.11421 -0.13019,-0.11425 -0.0813,-0.0979 -0.16278,-0.11429 -0.0813,-0.11418 -0.0813,-0.11419 -0.0487,-0.11412 -0.0976,-0.0979 -0.065,-0.11414 -0.065,-0.11417 -0.065,-0.11416 -0.0324,-0.1141 -0.0487,-0.0979 -0.065,-0.11415 -0.1139,-0.11423 -0.0976,-0.1142 -0.065,-0.11416 -0.0976,-0.0979 -0.065,-0.11416 -0.0813,-0.11418 -0.16279,-0.11429 -0.0813,-0.0979 -0.0976,-0.11421"
           style="fill:none;stroke:#004c22;stroke-width:0.29331;stroke-linecap:round;stroke-linejoin:round;stroke-miterlimit:10;stroke-dasharray:none;stroke-opacity:1"
           id="path6496"
           inkscape:connector-curvature="0"
           inkscape:export-filename="..\..\..\..\..\..\..\..\Temp\path6496.svg"
           inkscape:export-xdpi="300"
           inkscape:export-ydpi="300"
           transform="matrix(0.79713648,0,0,0.79840368,62.61866,22.285856)" />
        <g
           id="g6500"
           transform="matrix(1.5367274e-4,-0.10841648,-0.1082444,-1.5391703e-4,360.59003,157.89355)"
           style="stroke-width:2.15772;stroke-miterlimit:10;stroke-dasharray:none">
          <g
             id="g6502"
             clip-path="url(#clipPath6506)"
             style="stroke-width:2.15772;stroke-miterlimit:10;stroke-dasharray:none">
            <path
               d="m 143.4,651.72 0.84,0.12 0.84,0.12 0.84,0.12 0.72,0.12 0.84,0.24 0.84,0.12 0.84,0.12 0.84,0.12 0.72,0.24 0.84,0.12 0.84,0.12 0.84,0.12 0.72,0.12 0.84,0.12 0.84,0.12 0.84,0.12 0.84,0.12 0.72,0.12 0.84,0.12 0.84,0.12 0.84,0.12 0.84,0.12 0.72,0.12 0.84,0.12 0.84,0.12 0.84,0.12 h 0.72 l 0.84,0.12 0.84,0.12 0.84,0.12 0.84,0.12 0.72,0.12 0.84,0.12 h 0.84 l 0.84,0.12 0.84,0.12 0.72,0.24 h 0.84 l 0.84,0.12 0.84,0.12 0.84,0.12 0.72,0.24 0.84,0.12 0.84,0.12 0.84,0.12 h 0.72 l 0.84,0.12 0.84,0.24 h 0.84 l 0.84,0.24 0.72,0.12 0.84,0.12 0.84,0.12 0.84,0.12 0.84,0.12 0.72,0.12 0.84,0.12 0.84,0.24 0.84,0.12 0.72,0.12 0.84,0.12 0.84,0.12 0.84,0.24 0.84,0.12 0.72,0.12 0.84,0.24 0.84,0.12 0.84,0.12 0.84,0.12 0.72,0.12 0.84,0.12 0.84,0.24 0.84,0.12 h 0.72 0.84 l 0.84,0.24 0.84,0.12 0.84,0.24 0.72,0.12 0.84,0.36 0.84,0.12 0.84,0.24 0.84,0.12 0.72,0.24 0.84,0.12 0.84,0.24 0.84,0.24 0.84,0.12 0.72,0.24 0.84,0.12 h 0.84 l 0.84,-0.12 h 0.72 l 0.84,-0.24 0.84,-0.24 0.84,-0.12 0.84,-0.24 0.72,-0.36 0.84,-0.24 0.84,-0.12 h 0.84 l 0.84,-0.24 0.72,0.12 0.84,-0.12 0.84,-0.24 0.84,-0.36 0.72,-0.24 0.84,-0.12 h 0.84 l 0.84,-0.24 h 0.84 l 0.72,-0.12 0.84,-0.12 0.84,0.12 0.84,-0.12 h 0.84 l 0.72,0.12 0.84,0.12 0.84,-0.24 h 0.84 l 0.72,0.48 0.84,-0.12 0.84,-0.12 h 0.84 l 0.84,0.12 H 246 l 0.84,0.12 0.84,-0.12 0.84,0.24 0.84,-0.12 0.72,-0.24 h 0.84 l 0.84,-0.24 h 0.84 l 0.84,0.12 0.72,0.12 0.84,0.24 0.84,0.6 0.84,-0.24 0.72,-0.36 0.84,-0.24 0.84,-0.24 0.84,0.12 0.84,-0.24 0.72,-0.24 0.84,-0.12 h 0.84 l 0.84,-0.6 0.84,-0.12 h 0.72 l 0.84,-0.48 0.84,-0.6 0.84,-0.48 0.72,-0.36 0.84,-0.36 0.84,-0.12 0.84,-0.72 0.84,0.36 0.72,-0.36 0.84,-0.12 0.84,-0.6 0.84,0.24 0.84,-0.48 0.72,0.24 0.84,-0.24 0.84,-0.36 0.84,-0.36 0.72,0.24 0.84,0.12 0.84,-0.12 0.84,0.24 0.84,0.84 0.72,0.12 0.84,-0.12 0.84,0.12 0.84,-0.12 0.84,0.12 0.72,-0.12 0.84,0.12 h 0.84 0.84 l 0.84,0.36 0.72,0.24 0.84,0.24 0.84,0.36 0.84,0.48 0.72,0.84 0.84,0.36 0.84,0.84 0.84,0.84 0.84,0.24 h 0.72 l 0.84,0.36 0.84,0.12 0.84,0.36 0.84,0.6 0.72,0.96 0.84,0.6 0.84,1.08 0.84,0.48"
               style="fill:none;stroke:#246e28;stroke-width:2.15772;stroke-linecap:round;stroke-linejoin:round;stroke-miterlimit:10;stroke-dasharray:none;stroke-opacity:1"
               id="path6508"
               inkscape:connector-curvature="0" />
          </g>
        </g>
        <path
           d="m 283.50538,128.11915 -0.065,-0.0979 -0.13021,-0.11425 -0.0487,-0.11414 -0.13019,-0.11425 -0.0324,-0.11411 -0.0977,-0.0979 -0.065,-0.11416 -0.065,-0.11415 0.0164,-0.11405 0.0164,-0.11403 -0.0324,-0.0979 -0.0487,-0.11414 -0.0161,-0.11409 1.7e-4,-0.11407 0.0327,-0.0978 -0.065,-0.11415 -0.13021,-0.11425 -0.0161,-0.11409 1.6e-4,-0.11406 -0.0487,-0.0979 -0.0487,-0.11414 -0.13019,-0.11425 -0.0976,-0.1142 -0.0487,-0.11414 -0.065,-0.0979 -0.0161,-0.11408 -0.0324,-0.11412 -0.065,-0.11416 -0.0487,-0.11413 -0.0976,-0.0979 -0.0324,-0.1141 -0.0487,-0.11414 -0.0813,-0.11418 -0.065,-0.0979 -0.0487,-0.11413 -0.065,-0.11415 -0.0487,-0.11414 -0.065,-0.11416 -0.0976,-0.0979 -0.0324,-0.11412 -0.0487,-0.11413 -0.0324,-0.11411 -0.0161,-0.11408 1.3e-4,-0.0978 -0.065,-0.11416 -0.065,-0.11416 -0.065,-0.11415 -0.0324,-0.0979 -0.065,-0.11414 -0.11391,-0.11423 -0.065,-0.11416 -0.14649,-0.11427 -0.0487,-0.0979 -0.0976,-0.1142 -0.0813,-0.11418 -0.065,-0.11415 -0.065,-0.11416 -0.0487,-0.0979 -0.0487,-0.11413 -0.0161,-0.1141 -0.065,-0.11415 -0.0487,-0.0979 -0.065,-0.11416 -0.0487,-0.11414 -0.0324,-0.1141 -0.0976,-0.11421 -0.065,-0.0979 -0.0161,-0.11409 1.6e-4,-0.11406 1.6e-4,-0.11407 -0.0487,-0.11414 -0.0162,-0.0978 -0.0161,-0.11408 -0.0976,-0.11421 -0.065,-0.11416 -0.065,-0.11415 -0.0976,-0.0979 -0.0813,-0.11418 -0.065,-0.11415 -0.0324,-0.11412 -0.0976,-0.0979 -0.1139,-0.11422 -0.11391,-0.11423 -0.13019,-0.11425 -0.0813,-0.11418 -0.0813,-0.0979 -0.0813,-0.11418 -0.0161,-0.11408 1.6e-4,-0.11407 -0.13019,-0.11425 -0.065,-0.0979"
           style="fill:none;stroke:#246e28;stroke-width:0.293;stroke-linecap:round;stroke-linejoin:round;stroke-miterlimit:10;stroke-dasharray:none;stroke-opacity:1"
           id="path6510"
           inkscape:connector-curvature="0"
           transform="matrix(0.79713648,0,0,0.79840368,62.61866,22.285856)" />
        <g
           id="g6512"
           transform="matrix(1.5367274e-4,-0.10841648,-0.1082444,-1.5391703e-4,360.59003,157.89355)">
          <g
             id="g6514"
             clip-path="url(#clipPath6518)">
            <path
               d="m 143.4,651.6 0.84,0.12 h 0.84 l 0.84,0.12 0.72,0.12 h 0.84 l 0.84,0.12 0.84,0.12 0.84,0.12 h 0.72 l 0.84,0.12 0.84,0.12 h 0.84 l 0.72,0.12 h 0.84 l 0.84,0.12 0.84,0.12 h 0.84 l 0.72,0.12 h 0.84 0.84 l 0.84,0.12 h 0.84 l 0.72,0.12 h 0.84 l 0.84,0.12 h 0.84 l 0.72,0.12 0.84,0.12 h 0.84 l 0.84,0.12 0.84,0.12 0.72,0.12 h 0.84 l 0.84,0.12 0.84,0.12 0.84,0.24 0.72,0.12 h 0.84 l 0.84,0.12 h 0.84 l 0.84,0.12 h 0.72 l 0.84,0.12 0.84,0.12 h 0.84 l 0.72,0.12 0.84,0.12 h 0.84 l 0.84,0.12 h 0.84 l 0.72,0.12 0.84,0.12 h 0.84 0.84 l 0.84,0.12 0.72,0.12 0.84,0.12 0.84,0.12 0.84,0.12 0.72,0.12 0.84,0.12 h 0.84 l 0.84,0.24 0.84,0.12 h 0.72 l 0.84,0.12 0.84,0.12 h 0.84 l 0.84,0.12 h 0.72 l 0.84,0.12 h 0.84 l 0.84,0.12 h 0.72 0.84 l 0.84,0.12 h 0.84 l 0.84,0.12 0.72,0.12 0.84,0.12 0.84,0.12 0.84,0.12 h 0.84 0.72 0.84 0.84 0.84 0.84 l 0.72,0.12 0.84,-0.12 0.84,-0.12 0.84,-0.12 0.72,-0.12 0.84,-0.12 0.84,-0.12 h 0.84 l 0.84,-0.24 0.72,-0.12 0.84,-0.12 0.84,-0.12 0.84,-0.12 0.84,-0.12 0.72,0.12 0.84,-0.12 0.84,-0.24 0.84,-0.12 0.72,-0.12 0.84,-0.12 0.84,-0.24 h 0.84 l 0.84,-0.24 0.72,-0.12 0.84,-0.12 h 0.84 l 0.84,-0.12 0.84,-0.24 h 0.72 l 0.84,-0.24 h 0.84 l 0.84,-0.24 0.72,-0.12 0.84,0.24 h 0.84 l 0.84,-0.12 h 0.84 l 0.72,-0.24 0.84,-0.12 0.84,-0.24 0.84,-0.12 0.84,0.12 0.72,0.12 0.84,0.12 0.84,-0.12 0.84,0.12 0.84,0.12 0.72,0.24 0.84,0.12 0.84,0.12 h 0.84 0.72 l 0.84,-0.12 0.84,-0.12 0.84,-0.24 0.84,-0.24 h 0.72 l 0.84,-0.24 0.84,-0.36 0.84,-0.12 0.84,-0.48 0.72,-0.36 0.84,-0.36 0.84,-0.24 0.84,-0.36 0.72,-0.12 0.84,-0.12 0.84,-0.12 0.84,0.12 0.84,-0.36 0.72,-0.24 0.84,-0.36 0.84,-0.24 h 0.84 l 0.84,-0.12 0.72,-0.36 0.84,-0.24 0.84,-0.36 0.84,-0.48 h 0.72 l 0.84,0.12 0.84,0.24 0.84,0.12 0.84,0.36 0.72,0.36 0.84,0.24 h 0.84 l 0.84,-0.24 0.84,-0.12 0.72,0.12 0.84,0.6 0.84,0.96 h 0.84 l 0.84,-0.24 0.72,-0.24 0.84,-0.24 h 0.84 l 0.84,-0.12 h 0.72 l 0.84,-0.12 0.84,0.24 0.84,-0.12 h 0.84 0.72 0.84 l 0.84,-0.12 0.84,0.12 h 0.84 0.72 l 0.84,0.12 h 0.84 l 0.84,-0.36"
               style="fill:none;stroke:#92d050;stroke-width:2.16;stroke-linecap:round;stroke-linejoin:round;stroke-miterlimit:10;stroke-dasharray:none;stroke-opacity:1"
               id="path6520"
               inkscape:connector-curvature="0" />
          </g>
        </g>
        <path
           d="m 285.55855,128.12206 0.0327,-0.0978 0.0654,-0.11397 1.6e-4,-0.11407 0.0327,-0.11401 0.0491,-0.114 -0.0162,-0.0978 0.0164,-0.11403 -0.0161,-0.1141 -0.0161,-0.11408 1.7e-4,-0.11407 -0.0162,-0.0978 -0.0161,-0.11408 -0.065,-0.11416 -0.0324,-0.11412 1.3e-4,-0.0978 -0.0161,-0.11408 -0.0161,-0.11409 -0.11391,-0.11423 -0.0324,-0.11411 -0.0324,-0.0977 -0.0813,-0.11419 -0.0813,-0.11418 -0.0813,-0.11418 -0.065,-0.11415 -0.0487,-0.0979 -0.0324,-0.11411 -0.0161,-0.11409 -0.0324,-0.11411 -0.065,-0.11416 -0.0162,-0.0978 -0.0161,-0.11408 -0.0324,-0.11411 -0.0161,-0.1141 -0.0324,-0.0978 -0.0161,-0.11408 -0.0324,-0.11412 -0.065,-0.11415 -0.1302,-0.11425 -0.0162,-0.0977 -0.0161,-0.1141 -0.0813,-0.11418 -0.0977,-0.11421 -0.0813,-0.11417 -0.0487,-0.0979 -0.0487,-0.11413 -0.0487,-0.11413 -0.0324,-0.11411 -0.0162,-0.0978 -0.0487,-0.11413 -0.065,-0.11416 -0.065,-0.11416 -0.065,-0.11415 -0.0487,-0.0979 -0.0487,-0.11413 -0.0813,-0.11419 -0.0487,-0.11414 -0.0487,-0.11412 -0.0324,-0.0979 -0.0324,-0.11412 -0.0161,-0.11408 -0.0161,-0.1141 -0.0487,-0.0979 -0.0487,-0.11413 -0.0487,-0.11413 -0.0324,-0.11412 -0.0487,-0.11414 -0.065,-0.0979 -0.065,-0.11416 -0.0487,-0.11412 -0.0324,-0.11412 1.7e-4,-0.11406 1.4e-4,-0.0978 -0.0161,-0.11409 -0.0161,-0.11409 -0.0161,-0.11409 1.7e-4,-0.11406 -0.0162,-0.0978 -0.065,-0.11416 -0.0161,-0.11408 -0.065,-0.11416 -0.0487,-0.0979 -0.065,-0.11416 -0.0324,-0.11412 -0.0487,-0.11413 -0.0161,-0.11409 -0.065,-0.0979 -0.065,-0.11416 -0.0487,-0.11413 -0.0487,-0.11414 -0.0324,-0.11411 -0.0162,-0.0978"
           style="fill:none;stroke:#92d050;stroke-width:0.29331;stroke-linecap:round;stroke-linejoin:round;stroke-miterlimit:10;stroke-dasharray:none;stroke-opacity:1"
           id="path6522"
           inkscape:connector-curvature="0"
           transform="matrix(0.79713648,0,0,0.79840368,62.61866,22.285856)" />
        <path
           d="m 285.36706,136.75816 -0.0161,-0.1141 -0.0161,-0.11408 -0.0161,-0.11409 -0.0162,-0.0978 -0.0161,-0.11409 -0.0161,-0.11409 -0.0161,-0.11409 -0.0161,-0.11408 -0.0162,-0.0978 1.6e-4,-0.11406 -0.0161,-0.1141 -0.0161,-0.11409 -0.0161,-0.11408 -0.0162,-0.0978 -0.0161,-0.1141 1.6e-4,-0.11406 -0.0161,-0.11408 -0.0162,-0.0978 -0.0161,-0.11408 -0.0161,-0.11409 -0.0161,-0.11409 -0.0161,-0.11409 1.5e-4,-0.0978 -0.0161,-0.11408 -0.0161,-0.11409 -0.0161,-0.11409 -0.0161,-0.11409 1.3e-4,-0.0978 -0.0161,-0.11409 -0.0161,-0.1141 1.7e-4,-0.11406 1.3e-4,-0.0978 -0.0161,-0.11408 0.0164,-0.11405 -0.0161,-0.11408 -0.0324,-0.11412 -0.0324,-0.0978 1.6e-4,-0.11406 -0.0324,-0.11411 -0.0324,-0.11412 -0.0487,-0.11412 -0.0324,-0.0978 1.6e-4,-0.11407 0.0164,-0.11404 1.7e-4,-0.11407 0.0327,-0.0978 0.0327,-0.11403 0.0164,-0.11404 0.0327,-0.11401 0.0327,-0.11403 0.0327,-0.0978 0.098,-0.11392 0.0327,-0.11403 0.0654,-0.11397 0.049,-0.11399 0.0327,-0.0978 0.0327,-0.11402 0.0491,-0.11399 0.0327,-0.11403 0.0979,-0.11392 0.0979,-0.0977 0.0979,-0.11393 0.049,-0.114 0.0654,-0.11397 0.0491,-0.0976 0.0327,-0.11403 0.0327,-0.11401 0.049,-0.11399 0.049,-0.11401 0.0327,-0.0978 0.0817,-0.11395 0.0327,-0.11402 0.049,-0.114 0.0327,-0.11401 0.0164,-0.0978 1.6e-4,-0.11407 1.7e-4,-0.11406 1.5e-4,-0.11406 0.0327,-0.0978 0.0164,-0.11405 1.7e-4,-0.11406 0.0164,-0.11404 0.0327,-0.11402 0.0654,-0.0977 0.0327,-0.11403 0.0164,-0.11404 1.6e-4,-0.11406 0.0327,-0.11402 0.0327,-0.0978 -0.0161,-0.11408 0.0327,-0.11402 0.0164,-0.11405 -0.0487,-0.0979 1.6e-4,-0.11406 0.0327,-0.11402 1.6e-4,-0.11406 0.0327,-0.11402 0.0164,-0.0978 -0.0161,-0.11409 0.0327,-0.11402 0.0164,-0.11404 -0.0324,-0.11411 1.3e-4,-0.0978 1.7e-4,-0.11406 -0.0324,-0.11412 -0.0161,-0.11409 0.0164,-0.11404 -0.0487,-0.0979 -0.0161,-0.11409 0.0164,-0.11404 -0.0324,-0.11412 -0.0324,-0.0979 -0.0161,-0.11408 -0.0324,-0.11412 -0.0487,-0.11412 -0.0161,-0.1141 -0.0162,-0.0978 -0.0324,-0.1141 -0.0161,-0.11409 -0.0487,-0.11414 -0.0487,-0.11413 -0.065,-0.0979 -0.0487,-0.11414 -0.0487,-0.11414 -0.0324,-0.1141 -0.0487,-0.0979 -0.065,-0.11415 -0.065,-0.11416 -0.065,-0.11416 -0.0487,-0.11413 -0.065,-0.0979 -0.065,-0.11415 -0.065,-0.11416 -0.0813,-0.11418 -0.0487,-0.11413 -0.0813,-0.0979 -0.065,-0.11415 -0.0324,-0.11412 -0.0487,-0.11413 -0.0324,-0.0978 -0.0161,-0.11409 -0.0161,-0.11409 -0.0161,-0.11408 -0.0161,-0.1141 -0.0162,-0.0977 -0.0161,-0.11409 -0.0161,-0.11409 -0.0161,-0.11408 -0.0161,-0.1141 v 0 l -0.13253,-1.24755 -0.0161,-1.04953"
           style="fill:none;stroke:#ffff00;stroke-width:0.29331;stroke-linecap:round;stroke-linejoin:round;stroke-miterlimit:10;stroke-dasharray:none;stroke-opacity:1"
           id="path6524"
           inkscape:connector-curvature="0"
           sodipodi:nodetypes="ccccccccccccccccccccccccccccccccccccccccccccccccccccccccccccccccccccccccccccccccccccccccccccccccccccccccccccccccccccccccccccccccccccccccccccccccccccccccc"
           transform="matrix(0.79713648,0,0,0.79840368,62.61866,22.285856)" />
        <path
           d="m 285.38413,136.20415 0.0164,-0.11404 1.7e-4,-0.11407 0.0164,-0.11404 1.4e-4,-0.0978 0.0164,-0.11405 1.7e-4,-0.11406 1.5e-4,-0.11406 0.0164,-0.11405 0.0164,-0.0978 0.0164,-0.11404 1.7e-4,-0.11407 1.6e-4,-0.11406 1.4e-4,-0.0978 0.0164,-0.11403 0.0164,-0.11405 0.0164,-0.11404 0.0164,-0.11404 0.0164,-0.0978 0.0164,-0.11405 0.0164,-0.11403 0.0164,-0.11404 0.0164,-0.11405 0.0327,-0.0978 0.0327,-0.11401 0.0327,-0.11402 0.0164,-0.11404 0.0164,-0.0978 0.0327,-0.11402 0.0327,-0.11402 0.0327,-0.11401 0.0164,-0.11405 0.0327,-0.0978 0.0164,-0.11405 0.049,-0.11399 1.7e-4,-0.11406 1.6e-4,-0.11407 0.0164,-0.0978 0.0327,-0.11402 0.049,-0.11399 0.0491,-0.11401 0.0491,-0.0976 0.049,-0.11401 0.0327,-0.11401 0.0327,-0.11402 0.049,-0.11399 0.0491,-0.0978 0.049,-0.11399 0.0654,-0.11397 0.0491,-0.11401 0.049,-0.11399 0.0327,-0.0978 0.0164,-0.11404 0.0164,-0.11404 0.049,-0.114 0.0654,-0.11397 0.0327,-0.0978 0.0817,-0.11395 0.0654,-0.11397 0.049,-0.11399 0.0327,-0.0978 0.049,-0.11399 0.0327,-0.11402 0.0491,-0.114 0.0654,-0.11397 0.0327,-0.0978 0.0654,-0.11397 0.0327,-0.11402 0.049,-0.11399 0.0327,-0.11403 0.0491,-0.0976 0.049,-0.114 0.049,-0.11399 0.0327,-0.11402 0.0491,-0.0976 0.0327,-0.11401 0.049,-0.114 0.0327,-0.11402 0.0327,-0.11402 0.0327,-0.0978 0.0327,-0.11401 0.0491,-0.11399 0.0327,-0.11403 0.0327,-0.11402 0.0327,-0.0978 0.0327,-0.11401 0.049,-0.11399 0.0327,-0.11403 0.0327,-0.0978 1.5e-4,-0.11407 0.0327,-0.11402 0.0164,-0.11403 0.0164,-0.11405 0.0164,-0.0978 1.7e-4,-0.11406 0.0164,-0.11405 1.6e-4,-0.11406 -0.0161,-0.11408 0.0164,-0.0978 0.0164,-0.11405 1.6e-4,-0.11406 0.0164,-0.11405 1.5e-4,-0.11406 -0.0162,-0.0978 1.7e-4,-0.11406 1.6e-4,-0.11407 1.6e-4,-0.11406 1.4e-4,-0.0978 1.7e-4,-0.11407 1.5e-4,-0.11406 1.7e-4,-0.11407 0.0164,-0.11404 1.4e-4,-0.0978 1.7e-4,-0.11406 1.5e-4,-0.11407 -0.0161,-0.11408 1.7e-4,-0.11407 1.4e-4,-0.0978 1.5e-4,-0.11406 0.0164,-0.11404 1.6e-4,-0.11407 0.0164,-0.0978 -0.0161,-0.11408 0.0164,-0.11405 1.6e-4,-0.11406 1.7e-4,-0.11407 0.0164,-0.0978 1.6e-4,-0.11407 0.0164,-0.11404 1.7e-4,-0.11407 1.5e-4,-0.11406 0.0164,-0.0978 1.6e-4,-0.11406 -0.0161,-0.1141 1.5e-4,-0.11406 -0.0162,-0.0978 1.7e-4,-0.11408 1.6e-4,-0.11406 1.5e-4,-0.11407 1.7e-4,-0.11406 1.3e-4,-0.0978 1.7e-4,-0.11407 -0.0161,-0.11408 1.6e-4,-0.82278 -0.0116,-0.66921 -0.0235,-0.93643"
           style="fill:none;stroke:#33cc33;stroke-width:0.29331;stroke-linecap:round;stroke-linejoin:round;stroke-miterlimit:10;stroke-dasharray:none;stroke-opacity:1"
           id="path6526"
           inkscape:connector-curvature="0"
           sodipodi:nodetypes="cccccccccccccccccccccccccccccccccccccccccccccccccccccccccccccccccccccccccccccccccccccccccccccccccccccccccccccccccccccccccccccccccccccccccccccccccc"
           transform="matrix(0.79713648,0,0,0.79840368,62.61866,22.285856)" />
        <path
           d="m 285.38334,136.75818 1.6e-4,-0.11407 1.7e-4,-0.11406 1.5e-4,-0.11407 1.5e-4,-0.0978 1.6e-4,-0.11406 1.6e-4,-0.11407 1.6e-4,-0.11406 1.7e-4,-0.11406 0.0164,-0.0978 1.6e-4,-0.11408 1.7e-4,-0.11406 1.5e-4,-0.11407 1.7e-4,-0.11406 1.3e-4,-0.0978 1.7e-4,-0.11406 1.6e-4,-0.11407 0.0164,-0.11403 1.5e-4,-0.0978 1.5e-4,-0.11408 1.7e-4,-0.11406 1.6e-4,-0.11406 0.0164,-0.11404 1.3e-4,-0.0978 1.7e-4,-0.11406 1.6e-4,-0.11407 1.7e-4,-0.11406 1.5e-4,-0.11408 1.5e-4,-0.0977 0.0164,-0.11404 1.6e-4,-0.11406 1.7e-4,-0.11407 1.3e-4,-0.0978 -0.0161,-0.11409 1.7e-4,-0.11407 1.6e-4,-0.11406 1.6e-4,-0.11407 1.4e-4,-0.0978 1.6e-4,-0.11407 -0.0161,-0.11408 1.5e-4,-0.11407 1.7e-4,-0.11406 1.3e-4,-0.0978 -0.0161,-0.11409 1.6e-4,-0.11406 -0.0161,-0.1141 -0.0162,-0.0978 -0.0161,-0.11408 1.5e-4,-0.11407 -0.0161,-0.11408 1.7e-4,-0.11407 -0.0162,-0.0978 -0.0161,-0.11409 1.7e-4,-0.11407 1.6e-4,-0.11406 -0.0161,-0.11409 1.4e-4,-0.0978 1.6e-4,-0.11406 1.7e-4,-0.11406 -0.0161,-0.11409 0.0164,-0.11404 0.0164,-0.0978 0.0164,-0.11405 1.6e-4,-0.11406 0.0164,-0.11404 1.5e-4,-0.0978 0.0327,-0.11402 0.0164,-0.11404 0.0327,-0.11402 0.0164,-0.11404 0.0327,-0.0978 0.0327,-0.11403 0.0327,-0.11402 1.6e-4,-0.11406 0.0327,-0.11402 0.0164,-0.0978 0.049,-0.11399 0.0327,-0.11402 0.049,-0.11399 0.0654,-0.0976 0.0491,-0.11399 0.0327,-0.11403 0.0327,-0.11401 0.049,-0.114 0.0491,-0.0977 0.049,-0.11399 0.0327,-0.11401 0.0327,-0.11403 0.0327,-0.11402 0.0654,-0.0976 0.0654,-0.11397 0.0491,-0.114 0.0654,-0.11397 0.0653,-0.0976 0.0491,-0.114 0.0491,-0.11399 0.049,-0.114 0.049,-0.114 0.0654,-0.0977 0.0654,-0.11398 0.0491,-0.11399 0.0654,-0.11397 0.049,-0.11399 0.0327,-0.0978 0.0491,-0.114 0.049,-0.11399 0.0491,-0.114 0.049,-0.114 0.0491,-0.0976 0.049,-0.114 0.0491,-0.11399 0.049,-0.11399 0.0491,-0.0977 0.0327,-0.11402 0.0164,-0.11404 0.0327,-0.11402 0.0164,-0.11404 1.4e-4,-0.0978 0.0164,-0.11405 0.0327,-0.11401 0.0164,-0.11404 1.7e-4,-0.11407 0.0327,-0.0978 0.0164,-0.11404 1.6e-4,-0.11406 -0.0161,-0.11409 1.3e-4,-0.0978 1.7e-4,-0.11406 -0.0161,-0.11409 1.6e-4,-0.11406 1.6e-4,-0.11407 -0.0162,-0.0978 1.6e-4,-0.11406 -0.0161,-0.1141 1.7e-4,-0.11406 -0.0161,-0.11409 -0.0162,-0.0978 -0.0161,-0.11408 1.6e-4,-0.11407 -0.0161,-0.11409 1.3e-4,-0.0978 -0.0161,-0.1141 -0.0161,-0.11408 1.6e-4,-0.11407 -0.0161,-0.11408 1.3e-4,-0.0978 -0.0161,-0.1141 -0.0161,-0.11408 -0.0662,-0.83238 -0.0333,-0.56507 -0.0166,-0.99984"
           style="fill:none;stroke:#ffc000;stroke-width:0.29331;stroke-linecap:round;stroke-linejoin:round;stroke-miterlimit:10;stroke-dasharray:none;stroke-opacity:1"
           id="path6528"
           inkscape:connector-curvature="0"
           sodipodi:nodetypes="ccccccccccccccccccccccccccccccccccccccccccccccccccccccccccccccccccccccccccccccccccccccccccccccccccccccccccccccccccccccccccccccccccccccccccccccccccccccc"
           transform="matrix(0.79713648,0,0,0.79840368,62.61866,22.285856)" />
        <path
           d="m 285.35386,146.0463 1.7e-4,-0.11407 1.5e-4,-0.11406 -0.0161,-0.1141 1.4e-4,-0.0978 1.6e-4,-0.11406 -0.0161,-0.11409 1.7e-4,-0.11406 -0.0162,-0.0978 1.5e-4,-0.11407 1.7e-4,-0.11406 -0.0161,-0.11408 1.6e-4,-0.11407 -0.0162,-0.0978 1.7e-4,-0.11406 -0.0161,-0.1141 1.5e-4,-0.11406 -0.0161,-0.11409 1.3e-4,-0.0978 -0.0161,-0.11408 1.7e-4,-0.11407 -0.0161,-0.11409 1.3e-4,-0.0978 -0.0161,-0.11409 -0.0161,-0.11408 1.7e-4,-0.11407 -0.0161,-0.11408 1.3e-4,-0.0978 -0.0161,-0.1141 -0.0161,-0.11408 1.7e-4,-0.11407 -0.0161,-0.11408 1.4e-4,-0.0978 1.7e-4,-0.11406 1.5e-4,-0.11407 -0.0161,-0.11409 1.5e-4,-0.0978 1.5e-4,-0.11407 -0.0161,-0.11408 1.6e-4,-0.11407 1.6e-4,-0.11406 -0.0162,-0.0978 1.7e-4,-0.11407 1.5e-4,-0.11406 1.7e-4,-0.11407 1.6e-4,-0.11406 -0.0162,-0.0978 1.5e-4,-0.11406 1.7e-4,-0.11407 -0.0161,-0.11408 1.6e-4,-0.11408 1.5e-4,-0.0978 1.5e-4,-0.11406 1.7e-4,-0.11407 1.6e-4,-0.11406 1.4e-4,-0.0978 1.6e-4,-0.11406 0.0164,-0.11404 1.7e-4,-0.11406 -0.0161,-0.1141 0.0164,-0.0978 1.6e-4,-0.11406 0.0164,-0.11404 1.7e-4,-0.11407 1.6e-4,-0.11406 1.4e-4,-0.0978 1.6e-4,-0.11407 0.0164,-0.11403 1.7e-4,-0.11408 1.3e-4,-0.0977 0.0164,-0.11404 1.5e-4,-0.11406 0.0164,-0.11405 0.0164,-0.11404 1.5e-4,-0.0978 0.0164,-0.11404 0.0164,-0.11404 1.6e-4,-0.11406 1.7e-4,-0.11408 0.0164,-0.0978 0.0164,-0.11403 0.0164,-0.11404 1.6e-4,-0.11407 0.0164,-0.0978 1.7e-4,-0.11406 0.0164,-0.11404 1.6e-4,-0.11407 0.0164,-0.11404 1.3e-4,-0.0978 1.7e-4,-0.11407 0.0164,-0.11404 0.0164,-0.11403 1.6e-4,-0.11407 0.0164,-0.0978 0.0164,-0.11404 0.0164,-0.11404 0.0164,-0.11405 0.0164,-0.11404 0.0164,-0.0978 0.0327,-0.11402 0.0164,-0.11405 0.0327,-0.11401 0.0164,-0.0978 0.0164,-0.11404 0.0164,-0.11405 0.0164,-0.11404 0.0327,-0.11401 0.0327,-0.0978 0.0327,-0.11402 0.0164,-0.11405 0.0164,-0.11403 0.049,-0.114 0.0164,-0.0978 0.0327,-0.11401 0.0327,-0.11403 0.0491,-0.11399 0.0327,-0.0978 0.0164,-0.11404 0.0164,-0.11405 0.0164,-0.11403 0.0164,-0.11404 1.4e-4,-0.0978 0.0164,-0.11405 0.0327,-0.11402 0.0164,-0.11403 0.0327,-0.11403 0.0164,-0.0978 0.0327,-0.11403 0.0327,-0.11401 1.6e-4,-0.11406 0.0327,-0.0978 0.0164,-0.11405 1.6e-4,-0.11406 1.6e-4,-0.11407 1.6e-4,-0.11406 0.0491,-0.0978 0.0327,-0.11401 0.049,-0.114 0.0327,-0.11402 -0.0161,-0.11409 -0.0162,-0.0978 0.049,-0.11399 0.0327,-0.11403 0.0164,-0.11403 0.0327,-0.11402 0.0164,-0.0978 0.0327,-0.11401 0.0164,-0.11405 0.0327,-0.11402 0.0327,-0.0978 0.0327,-0.11401 0.0327,-0.11403 0.0164,-0.11404 0.0327,-0.11401 0.0327,-0.0978 0.0327,-0.11402 0.0327,-0.11402 0.0327,-0.11402 0.0327,-0.11401 0.0327,-0.0978 1.7e-4,-0.11406 0.0327,-0.11403 0.0164,-0.11404 0.0164,-0.0978 0.0327,-0.11401 0.0164,-0.11405 0.049,-0.11399 0.0327,-0.11402 0.049,-0.0977 0.0327,-0.11401 0.0164,-0.11405 0.0327,-0.11401 0.0327,-0.11402 0.0327,-0.0978 0.0327,-0.11401 0.0327,-0.11403 0.0327,-0.11402 0.0164,-0.0978 0.0327,-0.11401 0.0327,-0.11402 0.0327,-0.11402 0.0327,-0.11402 0.0164,-0.0978 0.0327,-0.11401 0.0164,-0.11404 0.0164,-0.11405 0.0327,-0.11401 0.0164,-0.0978 0.0327,-0.11402 0.0327,-0.11403 0.0164,-0.11403 0.0164,-0.11404 0.0327,-0.0978 0.0164,-0.11405 0.0327,-0.11401 0.0327,-0.11402 0.0327,-0.0978 0.0164,-0.11404 0.0164,-0.11405 0.0327,-0.11401 0.0164,-0.11404"
           style="fill:none;stroke:#ffd13f;stroke-width:0.29331;stroke-linecap:round;stroke-linejoin:round;stroke-miterlimit:10;stroke-dasharray:none;stroke-opacity:1"
           id="path6530"
           inkscape:connector-curvature="0"
           transform="matrix(0.79713648,0,0,0.79840368,62.61866,22.285856)" />
        <path
           d="m 287.99248,123.92141 0.0164,-0.0978 0.0164,-0.11405 0.0164,-0.11404 0.0164,-0.11404 1.6e-4,-0.11407 0.0164,-0.0978 1.7e-4,-0.11406 1.6e-4,-0.11407 0.0327,-0.11401 1.4e-4,-0.0978 0.0327,-0.11402 0.0164,-0.11404 1.6e-4,-0.11407 0.0164,-0.11403 1.3e-4,-0.0978 -0.0161,-0.1141 1.7e-4,-0.11406 0.0164,-0.11405 -0.0161,-0.11408 1.3e-4,-0.0978 1.7e-4,-0.11406 1.5e-4,-0.11407 1.7e-4,-0.11406 0.0164,-0.0978 1.6e-4,-0.11407 0.0164,-0.11404 1.7e-4,-0.11406 1.6e-4,-0.11407 1.3e-4,-0.0978 0.0164,-0.11404 1.6e-4,-0.11407 1.6e-4,-0.11406 -0.0161,-0.11409 1.5e-4,-0.0978 -0.0161,-0.11408 -0.0161,-0.1141 -0.0161,-0.11408 1.6e-4,-0.11407 1.4e-4,-0.0978 1.6e-4,-0.11407 -0.0161,-0.11408 1.7e-4,-0.11407 1.3e-4,-0.0978 -0.0161,-0.11408 -0.0161,-0.1141 -0.0161,-0.11408 1.7e-4,-0.11407 -0.0162,-0.0978 1.5e-4,-0.11406 1.7e-4,-0.11407 -0.0161,-0.11408 -0.0161,-0.1141 1.4e-4,-0.0978"
           style="fill:none;stroke:#ffd13f;stroke-width:0.29331;stroke-linecap:round;stroke-linejoin:round;stroke-miterlimit:10;stroke-dasharray:none;stroke-opacity:1"
           id="path6532"
           inkscape:connector-curvature="0"
           transform="matrix(0.79713648,0,0,0.79840368,62.61866,22.285856)" />
        <g
           id="g6534"
           transform="matrix(1.5367274e-4,-0.10841648,-0.1082444,-1.5391703e-4,360.59003,157.89355)">
          <g
             id="g6536"
             clip-path="url(#clipPath6540)">
            <path
               d="m 143.4,651.6 h 0.84 0.84 l 0.84,0.12 h 0.72 0.84 0.84 l 0.84,0.12 h 0.84 0.72 l 0.84,0.12 h 0.84 l 0.84,0.12 h 0.72 0.84 0.84 l 0.84,0.12 h 0.84 l 0.72,0.12 h 0.84 0.84 0.84 l 0.84,0.12 h 0.72 0.84 0.84 0.84 l 0.72,0.12 h 0.84 0.84 l 0.84,0.12 h 0.84 0.72 l 0.84,0.12 h 0.84 l 0.84,0.12 h 0.84 0.72 0.84 l 0.84,0.12 h 0.84 0.84 l 0.72,0.12 h 0.84 0.84 l 0.84,0.12 h 0.72 l 0.84,0.12 h 0.84 l 0.84,0.12 h 0.84 0.72 l 0.84,0.12 h 0.84 0.84 l 0.84,0.12 H 189 l 0.84,0.12 h 0.84 0.84 0.72 l 0.84,0.12 h 0.84 0.84 0.84 l 0.72,0.12 h 0.84 0.84 0.84 l 0.84,0.12 0.72,0.12 h 0.84 l 0.84,0.12 0.84,0.12 h 0.72 0.84 l 0.84,0.12 h 0.84 0.84 0.72 l 0.84,0.12 h 0.84 0.84 l 0.84,0.12 h 0.72 0.84 0.84 l 0.84,0.12 h 0.84 0.72 0.84 l 0.84,0.12 h 0.84 0.72 l 0.84,0.12 0.84,0.12 h 0.84 0.84 l 0.72,0.12 h 0.84 l 0.84,0.12 h 0.84 l 0.84,0.12 h 0.72 l 0.84,0.12 h 0.84 0.84 l 0.72,0.12 h 0.84 l 0.84,0.12 h 0.84 l 0.84,0.12 h 0.72 l 0.84,0.12 h 0.84 0.84 l 0.84,0.12 h 0.72 0.84 l 0.84,0.12 h 0.84 l 0.72,0.12 h 0.84 0.84 0.84 l 0.84,-0.12 h 0.72 0.84 l 0.84,-0.12 h 0.84 l 0.84,-0.12 h 0.72 l 0.84,-0.12 0.84,-0.24 0.84,-0.12 0.84,-0.12 0.72,-0.12 0.84,-0.24 0.84,-0.24 0.84,-0.12 0.72,-0.12 0.84,-0.24 0.84,-0.24 0.84,-0.12 0.84,-0.24 0.72,-0.24 0.84,-0.24 0.84,-0.24 0.84,-0.24 0.84,-0.24 0.72,-0.24 0.84,-0.24 0.84,-0.36 0.84,-0.24 0.72,-0.24 0.84,-0.24 0.84,-0.24 0.84,-0.36 0.84,-0.12 0.72,-0.24 0.84,-0.36 0.84,-0.12 0.84,-0.24 0.84,-0.48 0.72,-0.36 0.84,-0.36 0.84,-0.36 0.84,-0.36 0.72,-0.24 0.84,-0.36 0.84,-0.48 0.84,-0.6 0.84,-0.48 0.72,-0.48 0.84,-0.36 0.84,-0.48 0.84,-0.48 0.84,-0.48 0.72,-0.36 0.84,-0.24 0.84,-0.24 h 0.84 0.84 l 0.72,-0.48 h 0.84 0.84 0.84 0.72 0.84 l 0.84,-0.48 0.84,-0.6 0.84,-0.36 0.72,-0.24 0.84,-0.24 0.84,-0.24 0.84,-0.24 0.84,-0.36 0.72,-0.36 0.84,-0.24 0.84,-0.12 0.84,-0.36"
               style="fill:none;stroke:#66ff66;stroke-width:2.16;stroke-linecap:round;stroke-linejoin:round;stroke-miterlimit:10;stroke-dasharray:none;stroke-opacity:1"
               id="path6542"
               inkscape:connector-curvature="0" />
          </g>
        </g>
        <path
           d="m 287.20435,128.1244 0.0654,-0.0977 0.0327,-0.11401 0.0327,-0.11402 0.0164,-0.11405 0.0164,-0.11404 0.0327,-0.0978 0.0164,-0.11403 0.049,-0.114 0.0327,-0.11402 0.0327,-0.11402 1.4e-4,-0.0978 0.0164,-0.11403 0.0327,-0.11403 1.6e-4,-0.11406 0.049,-0.0977 0.0164,-0.11404 0.049,-0.11399 0.0327,-0.11403 1.7e-4,-0.11406 1.3e-4,-0.0978 0.0327,-0.11401 1.6e-4,-0.11407 0.049,-0.11399 0.0164,-0.11404 0.0327,-0.0978 0.0164,-0.11405 0.0164,-0.11404 1.6e-4,-0.11406 0.0164,-0.11405 0.0164,-0.0978 0.0327,-0.11401 0.0164,-0.11404 -0.0161,-0.11409 0.0164,-0.0978 0.0327,-0.11402 0.0164,-0.11404 0.0164,-0.11404 -0.0161,-0.11409 1.3e-4,-0.0978 0.0164,-0.11404 1.7e-4,-0.11406 -0.0161,-0.11409 1.6e-4,-0.11407 1.4e-4,-0.0978 0.0327,-0.11401 0.0164,-0.11405 -0.0324,-0.11411 1.4e-4,-0.0978 1.5e-4,-0.11407 0.0164,-0.11403 0.0164,-0.11404 -0.0324,-0.11412 1.3e-4,-0.0978 0.0164,-0.11403 1.7e-4,-0.11408 1.5e-4,-0.11406 0.0164,-0.11403 -0.0162,-0.0978 1.6e-4,-0.11407 0.0164,-0.11404 1.5e-4,-0.11407 0.0164,-0.0978 1.6e-4,-0.11406 0.0164,-0.11404 1.5e-4,-0.11407 1.7e-4,-0.11406 1.4e-4,-0.0978 1.6e-4,-0.11407 0.0164,-0.11404 -0.0161,-0.11409 1.6e-4,-0.11406 -0.0162,-0.0978 1.5e-4,-0.11406 -0.0161,-0.1141 1.7e-4,-0.11406 -0.0161,-0.11409 1.4e-4,-0.0978 -0.0161,-0.11408 1.7e-4,-0.11407 1.5e-4,-0.11406 -0.0162,-0.0978 1.7e-4,-0.11407 -0.0161,-0.11408 1.6e-4,-0.11408 -0.0161,-0.11408 1.4e-4,-0.0978 1.6e-4,-0.11407 -0.0161,-0.11408 1.7e-4,-0.11406 -0.0161,-0.11409 1.4e-4,-0.0978"
           style="fill:none;stroke:#66ff66;stroke-width:0.29331;stroke-linecap:round;stroke-linejoin:round;stroke-miterlimit:10;stroke-dasharray:none;stroke-opacity:1"
           id="path6544"
           inkscape:connector-curvature="0"
           transform="matrix(0.79713648,0,0,0.79840368,62.61866,22.285856)" />
        <path
           d="m 285.38131,138.19213 1.6e-4,-0.11407 1.7e-4,-0.11406 0.0164,-0.0978 1.6e-4,-0.11406 1.6e-4,-0.11407 -0.0161,-0.11408 1.6e-4,-0.11407 -0.0162,-0.0978 1.7e-4,-0.11406 1.5e-4,-0.11407 1.7e-4,-0.11406 1.4e-4,-0.0978 1.6e-4,-0.11406 1.6e-4,-0.11407 0.0164,-0.11404 1.6e-4,-0.11407 1.5e-4,-0.0978 1.5e-4,-0.11406 1.7e-4,-0.11407 1.6e-4,-0.11406 0.0164,-0.11404 1.4e-4,-0.0978 1.6e-4,-0.11407 0.0164,-0.11404 -0.0161,-0.11409 0.0164,-0.11404 1.5e-4,-0.0978 0.0164,-0.11404 0.0164,-0.11404 1.6e-4,-0.11406 1.4e-4,-0.0978 0.0164,-0.11404 0.0164,-0.11405 1.6e-4,-0.11406 0.0164,-0.11405 1.4e-4,-0.0978 1.6e-4,-0.11406 0.0164,-0.11404 0.0164,-0.11404 1.6e-4,-0.11406 0.0164,-0.0978 1.7e-4,-0.11406 0.0164,-0.11405 0.0327,-0.11402 0.0164,-0.0978 0.0327,-0.11401 0.049,-0.11401 0.0327,-0.11401 0.0327,-0.11402 0.0327,-0.0978 0.0327,-0.11401 0.0164,-0.11405 0.0327,-0.11402 0.0327,-0.11401 0.0491,-0.0978 0.0327,-0.11402 0.0327,-0.11402 0.0164,-0.11404 0.0327,-0.0978 0.0654,-0.11397 0.0164,-0.11404 0.0164,-0.11405 0.0164,-0.11403 0.0327,-0.0978 0.0327,-0.11402 0.049,-0.11399 0.049,-0.11401 0.0491,-0.11399 0.049,-0.0978 0.0327,-0.11401 0.0654,-0.11397 0.0491,-0.114 0.049,-0.11399 0.0654,-0.0976 0.0491,-0.11399 0.0817,-0.11395 0.0491,-0.114 0.0164,-0.0978 0.0164,-0.11404 0.0817,-0.11395 0.0164,-0.11404 0.0491,-0.114 0.049,-0.0976 0.0491,-0.114 0.049,-0.11399 0.0491,-0.114 0.0327,-0.11401 0.049,-0.0976 0.0491,-0.11399 0.049,-0.114 0.0491,-0.114 0.049,-0.0976 0.0491,-0.114 0.0327,-0.11402 0.0327,-0.11401 0.0817,-0.11395 0.049,-0.0978 0.0327,-0.11402 0.049,-0.114 0.049,-0.11399 0.0491,-0.114 0.0654,-0.0976 0.0164,-0.11404 0.0327,-0.11402 0.0164,-0.11405 0.049,-0.0978 0.0327,-0.11402 0.0327,-0.11402 0.0164,-0.11403 0.0327,-0.11403 0.0164,-0.0978 0.0327,-0.11401 1.7e-4,-0.11406 0.0327,-0.11403 0.0164,-0.11404 0.0164,-0.0978 0.0164,-0.11403 0.0327,-0.11403 0.0327,-0.11402 0.0164,-0.11403 0.0164,-0.0978 0.0327,-0.11402 0.0327,-0.11403 0.0327,-0.11401 1.3e-4,-0.0978 0.0164,-0.11404 0.0327,-0.11402 0.0164,-0.11404 1.7e-4,-0.11406 1.4e-4,-0.0978 1.6e-4,-0.11407 0.0164,-0.11404 1.5e-4,-0.11407 0.0164,-0.11404 1.4e-4,-0.0978 0.0164,-0.11404 0.0327,-0.11402 0.0164,-0.11404 0.0164,-0.0978 0.0164,-0.11404 0.0164,-0.11405 0.0164,-0.11403 1.7e-4,-0.11406 0.0164,-0.0978 1.7e-4,-0.11407 -0.0161,-0.11409 1.6e-4,-0.11407 1.6e-4,-0.11406 1.4e-4,-0.0978 1.6e-4,-0.11407 0.0164,-0.11404 1.5e-4,-0.11406 1.5e-4,-0.0978 1.6e-4,-0.11408 1.6e-4,-0.11406 1.6e-4,-0.11407 1.7e-4,-0.11406 1.3e-4,-0.0978 1.7e-4,-0.11406 1.6e-4,-0.11407 1.6e-4,-0.11406 1.6e-4,-0.11407 1.5e-4,-0.0978 1.5e-4,-0.11406 1.7e-4,-0.11407 1.6e-4,-0.11406 1.6e-4,-0.11406 1.4e-4,-0.0978 1.5e-4,-0.11407 1.7e-4,-0.11406 1.6e-4,-0.11407 1.4e-4,-0.0978 1.6e-4,-0.11406 1.7e-4,-0.11407 1.5e-4,-0.11406 1.7e-4,-0.11406 1.3e-4,-0.0978 1.7e-4,-0.11407 1.6e-4,-0.11406 1.7e-4,-0.11407 1.5e-4,-0.11406 1.5e-4,-0.0978"
           style="fill:none;stroke:#00b050;stroke-width:0.29331;stroke-linecap:round;stroke-linejoin:round;stroke-miterlimit:10;stroke-dasharray:none;stroke-opacity:1"
           id="path6546"
           inkscape:connector-curvature="0"
           transform="matrix(0.79713648,0,0,0.79840368,62.61866,22.285856)" />
        <g
           id="g6548"
           transform="matrix(1.5367274e-4,-0.10841648,-0.1082444,-1.5391703e-4,360.59003,157.89355)">
          <g
             id="g6550"
             clip-path="url(#clipPath6554)">
            <path
               d="m 143.4,651.6 h 0.84 l 0.84,0.12 h 0.84 l 0.72,0.12 0.84,0.12 h 0.84 l 0.84,0.12 0.84,0.12 h 0.72 l 0.84,0.12 0.84,0.12 h 0.84 l 0.72,0.12 0.84,0.12 h 0.84 l 0.84,0.12 0.84,0.12 h 0.72 l 0.84,0.12 0.84,0.12 h 0.84 l 0.84,0.12 h 0.72 l 0.84,0.12 h 0.84 l 0.84,0.12 h 0.72 l 0.84,0.12 h 0.84 l 0.84,0.12 h 0.84 0.72 l 0.84,0.12 h 0.84 0.84 l 0.84,0.12 h 0.72 0.84 0.84 0.84 0.84 0.72 0.84 0.84 l 0.84,0.12 h 0.72 0.84 0.84 0.84 0.84 0.72 0.84 0.84 l 0.84,0.12 h 0.84 0.72 0.84 0.84 0.84 0.72 0.84 0.84 0.84 l 0.84,0.12 h 0.72 0.84 0.84 0.84 0.84 0.72 0.84 0.84 0.84 0.72 0.84 0.84 l 0.84,0.12 h 0.84 0.72 0.84 0.84 0.84 l 0.84,0.12 h 0.72 l 0.84,0.12 h 0.84 l 0.84,0.12 0.84,0.12 0.72,0.12 h 0.84 l 0.84,0.12 0.84,0.12 0.72,0.24 0.84,0.12 0.84,0.12 0.84,0.12 0.84,0.12 0.72,0.12 0.84,0.12 0.84,0.12 0.84,0.12 0.84,0.24 0.72,0.12 0.84,0.12 0.84,0.24 0.84,0.12 0.72,0.24 0.84,0.12 0.84,0.12 0.84,0.24 0.84,0.12 0.72,0.24 0.84,0.12 0.84,0.24 0.84,0.12 0.84,0.24 0.72,0.12 0.84,0.12 0.84,0.24 0.84,0.12 0.72,0.24 0.84,0.12 0.84,0.12 0.84,0.12 0.84,0.12 h 0.72 0.84 0.84 0.84 l 0.84,-0.12 0.72,-0.12 0.84,-0.24 0.84,-0.24 0.84,-0.36 0.84,-0.36 0.72,-0.36 0.84,-0.6 0.84,-0.48 0.84,-0.6 0.72,-0.6 0.84,-0.6 0.84,-0.6 0.84,-0.72 0.84,-0.72 0.72,-0.72 0.84,-0.84 0.84,-0.72 0.84,-0.84 0.84,-0.72 0.72,-0.84 0.84,-0.72 0.84,-0.84 0.84,-0.72 0.72,-0.84 0.84,-0.72 0.84,-0.84 0.84,-0.72 0.84,-0.72 0.72,-0.72 0.84,-0.72 0.84,-0.72 0.84,-0.72 0.84,-0.6 0.72,-0.84 0.84,-0.72 0.84,-0.72 0.84,-0.84 0.72,-0.72 0.84,-0.72 0.84,-0.72 0.84,-0.84 0.84,-0.72 0.72,-0.84 0.84,-0.84 0.84,-0.72 0.84,-0.84 0.84,-0.84 0.72,-0.84 0.84,-0.84 0.84,-0.72 0.84,-0.72 0.84,-0.6 0.72,-0.72 0.84,-0.6 0.84,-0.6 0.84,-0.6 0.72,-0.48 0.84,-0.36 0.84,-0.48 0.84,-0.36 0.84,-0.24 0.72,-0.36 0.84,-0.36 0.84,-0.36 0.84,-0.48 0.84,-0.36 0.72,-0.36 0.84,-0.48 0.84,-0.36 0.84,-0.36"
               style="fill:none;stroke:#31859c;stroke-width:2.16;stroke-linecap:round;stroke-linejoin:round;stroke-miterlimit:10;stroke-dasharray:none;stroke-opacity:1"
               id="path6556"
               inkscape:connector-curvature="0" />
          </g>
        </g>
        <path
           d="m 290.08856,128.1285 0.0654,-0.0977 0.0654,-0.11397 0.0654,-0.11397 0.0654,-0.11398 0.049,-0.11399 0.049,-0.0977 0.0654,-0.11397 0.0491,-0.114 0.0491,-0.11399 0.049,-0.11399 0.0327,-0.0978 0.0491,-0.11399 0.0327,-0.11403 0.0491,-0.11399 0.0327,-0.0978 0.0327,-0.11402 0.0164,-0.11404 0.0327,-0.11402 0.0164,-0.11404 1.5e-4,-0.0978 0.0164,-0.11404 1.6e-4,-0.11407 0.0327,-0.11401 0.0164,-0.11405 0.0164,-0.0978 0.0164,-0.11405 0.0164,-0.11404 0.0164,-0.11405 0.0164,-0.11403 1.5e-4,-0.0978 0.0164,-0.11404 0.0164,-0.11405 1.5e-4,-0.11406 0.0164,-0.0978 0.0164,-0.11404 1.7e-4,-0.11407 0.0164,-0.11404 1.6e-4,-0.11407 0.0164,-0.0978 1.6e-4,-0.11407 0.0164,-0.11404 0.0164,-0.11404 1.6e-4,-0.11406 0.0164,-0.0978 0.0164,-0.11404 0.0327,-0.11403 0.0164,-0.11404 0.0327,-0.0978 0.0327,-0.11402 0.049,-0.11399 0.0327,-0.11403 0.0327,-0.11401 0.0327,-0.0978 0.0164,-0.11404 0.0327,-0.11402 0.0164,-0.11405 0.0164,-0.11403 0.0327,-0.0978 0.0164,-0.11404 0.0164,-0.11405 0.0164,-0.11404 0.0327,-0.0978 0.0164,-0.11403 0.0164,-0.11405 0.0164,-0.11404 0.0164,-0.11404 1.3e-4,-0.0978 0.0164,-0.11405 0.0164,-0.11403 0.0164,-0.11404 0.0164,-0.11405 1.4e-4,-0.0978 0.0164,-0.11404 1.7e-4,-0.11406 1.5e-4,-0.11407 1.7e-4,-0.11406 -0.0162,-0.0978 1.6e-4,-0.11407 -0.0161,-0.11408 -0.0161,-0.11409 -0.0162,-0.0978 -0.0161,-0.11409 -0.0161,-0.11409 -0.0324,-0.1141 -0.0161,-0.1141 -0.0324,-0.0978 -0.0324,-0.11411 -0.0161,-0.11409 -0.0324,-0.11411 -0.0161,-0.11408 -0.0324,-0.0978"
           style="fill:none;stroke:#31859c;stroke-width:0.29331;stroke-linecap:round;stroke-linejoin:round;stroke-miterlimit:10;stroke-dasharray:none;stroke-opacity:1"
           id="path6558"
           inkscape:connector-curvature="0"
           transform="matrix(0.79713648,0,0,0.79840368,62.61866,22.285856)" />
        <path
           d="m 285.37816,140.40825 1.7e-4,-0.11407 -0.0161,-0.11408 1.6e-4,-0.11407 1.4e-4,-0.0978 1.6e-4,-0.11406 1.7e-4,-0.11407 1.5e-4,-0.11406 1.7e-4,-0.11406 1.3e-4,-0.0978 1.6e-4,-0.11407 -0.0161,-0.11408 1.6e-4,-0.11408 1.5e-4,-0.11406 1.5e-4,-0.0977 1.6e-4,-0.11408 -0.0161,-0.11408 1.7e-4,-0.11407 1.3e-4,-0.0978 1.7e-4,-0.11407 0.0164,-0.11404 1.6e-4,-0.11407 -0.0161,-0.11408 1.4e-4,-0.0978 0.0164,-0.11405 1.5e-4,-0.11406 0.0164,-0.11404 -0.0161,-0.11409 -0.0162,-0.0978 1.7e-4,-0.11406 1.5e-4,-0.11407 1.7e-4,-0.11406 0.0164,-0.0978 1.6e-4,-0.11407 1.7e-4,-0.11406 1.5e-4,-0.11406 1.7e-4,-0.11407 1.4e-4,-0.0978 0.0164,-0.11404 1.6e-4,-0.11407 0.0164,-0.11404 1.7e-4,-0.11406 1.3e-4,-0.0978 0.0164,-0.11405 0.0164,-0.11403 0.0164,-0.11404 0.0164,-0.11405 0.0164,-0.0978 0.0164,-0.11404 0.0327,-0.11401 0.0164,-0.11405 0.0164,-0.0978 0.0164,-0.11404 1.6e-4,-0.11406 0.049,-0.114 0.0491,-0.114 0.0327,-0.0977 0.0654,-0.11398 0.0654,-0.11397 0.0654,-0.11397 0.049,-0.11399 0.0654,-0.0976 0.0327,-0.11401 0.0491,-0.11401 0.0654,-0.11397 0.0654,-0.0976 0.0654,-0.11399 0.0654,-0.11397 0.0817,-0.11395 0.0817,-0.11394 0.0979,-0.0977 0.0979,-0.11393 0.0817,-0.11396 0.0654,-0.11397 0.0654,-0.11397 0.0817,-0.0977 0.11423,-0.1139 0.0979,-0.11392 0.0817,-0.11395 0.0817,-0.0976 0.0817,-0.11395 0.0817,-0.11395 0.0979,-0.11392 0.098,-0.11393 0.0979,-0.0977 0.0491,-0.11399 0.049,-0.11399 0.0817,-0.11395 0.0979,-0.11393 0.0979,-0.0976 0.0979,-0.11393 0.098,-0.11393 0.049,-0.11399 0.049,-0.11399 0.0816,-0.0976 0.0817,-0.11395 0.0654,-0.11397 0.0979,-0.11392 0.049,-0.0977 0.0491,-0.114 0.0164,-0.11404 0.0491,-0.114 0.0164,-0.11403 0.0164,-0.0978 0.0164,-0.11404 0.0164,-0.11405 1.7e-4,-0.11406 0.0164,-0.11405 1.3e-4,-0.0978 0.0164,-0.11404 0.0164,-0.11403 0.0327,-0.11403 0.0164,-0.0978 0.0327,-0.11403 0.0164,-0.11403 0.0327,-0.11402 0.0327,-0.11403 0.0327,-0.0978 0.0654,-0.11398 0.0164,-0.11403 0.0164,-0.11404 0.049,-0.114 0.0327,-0.0978 0.0164,-0.11405 0.0164,-0.11404 0.0164,-0.11405 0.0164,-0.0978 0.0327,-0.11403 0.0654,-0.11397 1.6e-4,-0.11406 0.0327,-0.11402 0.0164,-0.0978 0.0164,-0.11404 0.049,-0.11399 0.0327,-0.11402 0.0654,-0.11398 0.0654,-0.0977 0.0491,-0.11399 0.049,-0.114 0.0327,-0.11402 0.0654,-0.11397 0.0327,-0.0978 0.0164,-0.11404 1.6e-4,-0.11407 0.0327,-0.11401 0.0327,-0.0978 0.0491,-0.114 0.0164,-0.11403 0.049,-0.11401 0.0491,-0.11399 0.0164,-0.0978 0.0327,-0.11401 0.0164,-0.11404 0.0327,-0.11403 0.0327,-0.11401 0.0327,-0.0978 0.0164,-0.11404 0.0164,-0.11405 0.0327,-0.11402 0.0327,-0.0978 0.0164,-0.11404 0.0164,-0.11404 0.0164,-0.11405 1.7e-4,-0.11406 1.3e-4,-0.0978 -0.0161,-0.11409 0.0164,-0.11404 1.6e-4,-0.11407 1.7e-4,-0.11406 1.3e-4,-0.0978 1.7e-4,-0.11406 -0.0161,-0.11409 1.6e-4,-0.11406 1.4e-4,-0.0978 1.6e-4,-0.11407 -0.0161,-0.11409 1.7e-4,-0.11407 -0.0161,-0.11408 1.3e-4,-0.0978 -0.0161,-0.11409 1.6e-4,-0.11406 1.6e-4,-0.11406 1.7e-4,-0.11407 1.3e-4,-0.0978 1.7e-4,-0.11406 1.6e-4,-0.11407 1.6e-4,-0.11406 1.6e-4,-0.11408 1.5e-4,-0.0977 1.5e-4,-0.11406 1.6e-4,-0.11406 1.7e-4,-0.11408 1.3e-4,-0.0978 1.7e-4,-0.11406 1.5e-4,-0.11407 1.7e-4,-0.11406 1.6e-4,-0.11407 1.4e-4,-0.0978 1.6e-4,-0.11406 1.7e-4,-0.11406 1.5e-4,-0.11407"
           style="fill:none;stroke:#8eb4e3;stroke-width:0.29331;stroke-linecap:round;stroke-linejoin:round;stroke-miterlimit:10;stroke-dasharray:none;stroke-opacity:1"
           id="path6560"
           inkscape:connector-curvature="0"
           transform="matrix(0.79713648,0,0,0.79840368,62.61866,22.285856)" />
        <path
           d="m 290.65656,118.28711 1.7e-4,-0.11406 1.3e-4,-0.0978"
           style="fill:none;stroke:#8eb4e3;stroke-width:0.29331;stroke-linecap:round;stroke-linejoin:round;stroke-miterlimit:10;stroke-dasharray:none;stroke-opacity:1"
           id="path6562"
           inkscape:connector-curvature="0"
           transform="matrix(0.79713648,0,0,0.79840368,62.61866,22.285856)" />
        <path
           d="m 285.37816,140.40825 1.7e-4,-0.11407 0.0164,-0.11403 0.0164,-0.11404 1.3e-4,-0.0978 0.0164,-0.11405 0.0164,-0.11404 1.6e-4,-0.11407 0.0164,-0.11404 0.0164,-0.0978 1.7e-4,-0.11406 1.6e-4,-0.11407 -0.0161,-0.11408 0.0164,-0.11405 1.5e-4,-0.0978 0.0164,-0.11404 1.6e-4,-0.11406 1.6e-4,-0.11407 -0.0162,-0.0978 1.6e-4,-0.11406 1.7e-4,-0.11407 1.5e-4,-0.11406 -0.0161,-0.11409 -0.0324,-0.0978 -0.0161,-0.11408 1.5e-4,-0.11407 1.7e-4,-0.11406 1.6e-4,-0.11407 -0.0162,-0.0978 -0.0324,-0.11411 1.5e-4,-0.11407 1.7e-4,-0.11406 1.3e-4,-0.0978 1.7e-4,-0.11406 -0.0161,-0.11409 -0.0161,-0.11409 1.5e-4,-0.11407 -0.065,-0.0979 -0.065,-0.11416 1.6e-4,-0.11406 -0.0161,-0.11409 -0.0324,-0.11411 0.0164,-0.0978 0.0327,-0.11402 1.7e-4,-0.11406 0.0327,-0.11402 0.0164,-0.11405 0.0327,-0.0978 0.0327,-0.11402 0.0327,-0.11402 0.0817,-0.11395 0.0817,-0.0976 0.0654,-0.11397 0.0654,-0.11397 0.0654,-0.11397 0.11423,-0.11391 0.0654,-0.0976 1.7e-4,-0.11406 0.0654,-0.11397 0.11422,-0.1139 0.0654,-0.11398 0.14679,-0.0975 0.11422,-0.1139 0.13053,-0.11388 0.14682,-0.11385 0.0979,-0.0977 0.14682,-0.11386 0.0654,-0.11397 0.0817,-0.11395 0.0817,-0.11394 0.0979,-0.0976 0.0817,-0.11395 0.0327,-0.11402 0.0654,-0.11397 0.049,-0.11399 0.0654,-0.0976 0.16311,-0.11383 0.11423,-0.11391 0.13053,-0.11388 0.0979,-0.0976 0.11422,-0.1139 0.0817,-0.11395 0.11422,-0.1139 0.0979,-0.11393 0.0979,-0.0976 0.13051,-0.11389 0.19571,-0.11378 0.14681,-0.11385 0.098,-0.11393 0.1468,-0.0975 0.13051,-0.11388 0.098,-0.11392 0.0979,-0.11393 0.0817,-0.11395 0.0979,-0.0976 0.0491,-0.11399 0.0653,-0.11397 0.0654,-0.11397 0.0491,-0.0976 0.0817,-0.11395 0.0817,-0.11394 0.0817,-0.11395 0.0654,-0.11398 0.1305,-0.0975 0.0979,-0.11393 0.13053,-0.11388 0.0817,-0.11395 0.11423,-0.1139 0.11419,-0.0976 0.0654,-0.11397 0.0817,-0.11396 0.0817,-0.11394 0.0327,-0.0978 0.0817,-0.11395 0.0164,-0.11405 0.13053,-0.11388 0.13052,-0.11388 0.1142,-0.0976 0.0979,-0.11393 0.0817,-0.11395 0.049,-0.11399 0.11423,-0.1139 0.0491,-0.0978 0.098,-0.11393 0.0491,-0.11399 0.0327,-0.11403 1.3e-4,-0.0978 0.11423,-0.1139 -0.0161,-0.11408 0.049,-0.11399 0.11423,-0.11391 0.0654,-0.0977 0.0979,-0.11392 0.049,-0.11399 0.0327,-0.11402 0.0164,-0.11405 0.0979,-0.0977 0.049,-0.114 0.0327,-0.11402 0.098,-0.11392 0.0654,-0.11397 0.0654,-0.0977 0.0164,-0.11404 0.0654,-0.11397 -0.0324,-0.11411 0.0491,-0.0978 0.0491,-0.114 0.0327,-0.11401 0.0327,-0.11402 1.7e-4,-0.11407 0.0815,-0.0977 0.0164,-0.11404 0.0654,-0.11398 0.0327,-0.11401 0.049,-0.11399 0.0654,-0.0977 0.0327,-0.11402 0.0164,-0.11405 0.0817,-0.11394 0.0164,-0.0978 1.7e-4,-0.11406 0.0327,-0.11402 -0.0161,-0.11409 1.6e-4,-0.11406 0.0327,-0.0978 -0.0161,-0.11409 -0.0487,-0.11413 -0.0161,-0.1141 -0.0324,-0.1141 -0.0325,-0.0979 -0.0324,-0.11411 -0.0487,-0.11413 -0.0161,-0.11409 1.3e-4,-0.0978 -0.0161,-0.11409 -0.0161,-0.11408 -0.0324,-0.11412 -0.0324,-0.1141 -0.0324,-0.0979 -0.0161,-0.11409 -0.0324,-0.11411 -0.0161,-0.11408 0.0164,-0.11405 -0.0162,-0.0978 1.7e-4,-0.11406 1.5e-4,-0.11406 1.7e-4,-0.11407 1.6e-4,-0.11406 1.3e-4,-0.0978 1.7e-4,-0.11407 1.6e-4,-0.11406 1.6e-4,-0.11407 1.4e-4,-0.0978 1.7e-4,-0.11406 1.5e-4,-0.11406 1.7e-4,-0.11407 1.6e-4,-0.11406 1.4e-4,-0.0978 1.6e-4,-0.11408 1.7e-4,-0.11406 1.5e-4,-0.11407"
           style="fill:none;stroke:#321547;stroke-width:0.29331;stroke-linecap:round;stroke-linejoin:round;stroke-miterlimit:10;stroke-dasharray:none;stroke-opacity:1"
           id="path6564"
           inkscape:connector-curvature="0"
           transform="matrix(0.79713648,0,0,0.79840368,62.61866,22.285856)" />
        <path
           d="m 293.50818,118.29115 1.7e-4,-0.11406 1.3e-4,-0.0978"
           style="fill:none;stroke:#321547;stroke-width:0.29331;stroke-linecap:round;stroke-linejoin:round;stroke-miterlimit:10;stroke-dasharray:none;stroke-opacity:1"
           id="path6566"
           inkscape:connector-curvature="0"
           transform="matrix(0.79713648,0,0,0.79840368,62.61866,22.285856)" />
        <text
           xml:space="preserve"
           style="font-style:normal;font-weight:normal;font-size:8.30356px;line-height:1.25;font-family:Calibri;text-align:center;letter-spacing:0px;word-spacing:0px;text-anchor:middle;fill:#000000;fill-opacity:1;stroke:none;stroke-width:0.184714;-inkscape-font-specification:'Calibri, Normal';font-stretch:normal;font-variant:normal;font-variant-ligatures:normal;font-variant-caps:normal;font-variant-numeric:normal;font-variant-east-asian:normal"
           x="277.75345"
           y="117.37025"
           id="text6004-4"
           transform="matrix(0.77271724,0,0,0.75728109,73.208448,26.866668)"><tspan
             sodipodi:role="line"
             id="tspan6002-8"
             x="277.75345"
             y="117.37025"
             style="font-style:normal;font-variant:normal;font-weight:normal;font-stretch:normal;font-size:8.3035571px;font-family:Calibri;-inkscape-font-specification:'Calibri, Normal';font-variant-ligatures:normal;font-variant-caps:normal;font-variant-numeric:normal;font-variant-east-asian:normal;text-align:center;direction:ltr;text-anchor:middle;stroke-width:0.184714">RuFlux</tspan></text>
        <path
           d="m 275.29819,124.24558 -0.0324,-0.11412 -0.0487,-0.11413 -0.0976,-0.1142 -0.1791,-0.098 -0.13021,-0.11425 -0.0813,-0.11419 -0.065,-0.11415 -0.0813,-0.11418 -0.0976,-0.0979 -0.065,-0.11415 -0.14649,-0.11427 -0.0813,-0.11418 -0.11392,-0.098 -0.11391,-0.11423 -0.1139,-0.11421 -0.1139,-0.11423 -0.1302,-0.11425 -0.0813,-0.0979 -0.1628,-0.11429 -0.0813,-0.11419 -0.0487,-0.11412 -0.065,-0.11417 -0.065,-0.0979 -0.065,-0.11416 -0.0813,-0.11418 -0.0813,-0.11418 -0.0976,-0.0979 -0.0976,-0.11421 -0.13021,-0.11425 -0.0813,-0.11418 -0.13019,-0.11425 -0.065,-0.0979 -0.0487,-0.11413 -0.0813,-0.11418 -0.0976,-0.11421 -0.0487,-0.11414 -0.0324,-0.0978 -0.0487,-0.11413 -0.065,-0.11415 -0.0813,-0.11419 -0.065,-0.11416 -0.065,-0.0979 -0.0813,-0.11418 -0.0813,-0.11418 -0.065,-0.11415 -0.0487,-0.0979 -0.0487,-0.11414 -0.0813,-0.11418 -0.0813,-0.11419 -0.0813,-0.11417 -0.0813,-0.0979 -0.0813,-0.11418 -0.065,-0.11415 -0.0976,-0.11421 -0.0813,-0.11418 -0.0977,-0.0979"
           style="fill:none;stroke:#004c22;stroke-width:0.29331;stroke-linecap:round;stroke-linejoin:round;stroke-miterlimit:10;stroke-dasharray:none;stroke-opacity:1"
           id="path6498"
           inkscape:connector-curvature="0"
           transform="matrix(0.79713648,0,0,0.79840368,62.61866,22.285856)" />
      </g>
    </g>
  </g>
</svg>
